<svg width="66" height="51" viewBox="0 0 66 51" fill="none" xmlns="http://www.w3.org/2000/svg">
<g clip-path="url(#clip0_80_152)">
<path d="M49.5901 22.3602C49.0503 20.4786 48.0002 19.0772 46.2007 18.3277C44.3743 17.5665 42.6494 17.8579 41.0029 18.8651C39.3384 14.9523 36.5313 12.8756 32.5661 12.5438C32.5327 12.5724 32.5005 12.601 32.4684 12.6322C32.2525 12.8378 31.9993 12.968 31.737 13.0278C31.5224 13.1488 31.3013 13.2607 31.0777 13.3648C31.0661 13.4117 31.0545 13.4572 31.0391 13.5028C31.2204 13.4559 31.4131 13.4325 31.6162 13.4195C31.7396 13.4117 31.8617 13.4065 31.9851 13.4039C35.719 13.3284 38.9965 15.707 40.2291 19.3856C40.4965 20.1832 40.6199 20.2223 41.2831 19.7252C41.2998 19.7135 41.3152 19.6992 41.3319 19.6875C43.7175 17.9191 47.0207 18.7259 48.3305 21.4142C48.5374 21.8371 48.6698 22.3003 48.7983 22.757C48.9886 23.4324 49.0631 23.4818 49.7469 23.2619C49.8304 23.2346 49.9153 23.2125 50.0078 23.189L50.2932 22.2535C50.0528 22.2899 49.8266 22.325 49.5875 22.3615" fill="white"/>
<path d="M64.4971 30.6099C64.1758 28.7465 63.073 27.565 61.2826 27.0914C60.6605 26.9274 59.9908 26.9495 59.2646 26.878C58.4857 25.1044 57.1991 23.7199 55.374 22.8715L55.1773 23.729C55.23 23.7472 55.2711 23.7629 55.3097 23.7837C56.7493 24.5332 57.7749 25.6756 58.4433 27.159C58.7685 27.8799 58.7659 27.8812 59.5281 27.7992C59.6297 27.7888 59.7312 27.7732 59.834 27.7693C60.8828 27.7225 61.8186 28.0231 62.6039 28.7361C63.6026 29.6431 63.9637 31.1174 63.4997 32.3093C63.0332 33.5051 62.1849 34.0191 60.6643 34.0204C58.4934 34.023 56.3238 34.023 54.1542 34.023C53.991 34.023 53.8265 34.0191 53.6632 34.0334C53.4254 34.0542 53.2558 34.2104 53.2879 34.4342C53.3085 34.5773 53.473 34.7334 53.6105 34.8167C53.7198 34.8831 53.8894 34.8597 54.0308 34.8597C56.3444 34.8597 58.658 34.8675 60.9715 34.8532C61.3558 34.8506 61.753 34.8037 62.1206 34.6931C63.7247 34.2117 64.8018 32.3652 64.4984 30.6086" fill="white"/>
<path d="M59.6438 13.0863C59.5487 13.0538 59.4433 13.0447 59.343 13.0369C58.6078 12.9822 57.8726 12.9354 57.1387 12.8782C56.7133 12.8469 56.2878 12.804 55.8727 12.7662C55.5179 11.8567 55.1825 10.9888 54.8406 10.1248C54.7339 9.85542 54.6323 9.58086 54.4884 9.33233C54.2943 8.99531 53.964 9.00312 53.7686 9.34013C53.6555 9.53532 53.5809 9.75392 53.4961 9.96342C53.1157 10.8977 52.7378 11.832 52.3522 12.7819C51.2802 12.8638 50.2404 12.9419 49.2006 13.0226C49.0374 13.0356 48.8703 13.0356 48.7135 13.0759C48.2636 13.1917 48.1736 13.5118 48.495 13.845C48.6376 13.992 48.8009 14.1195 48.959 14.2509C49.7186 14.8781 50.4795 15.5027 51.2532 16.139C50.9666 17.2086 50.6813 18.2652 50.4036 19.3231C50.1684 20.2209 50.2404 20.3133 51.1581 20.2483C51.1324 20.3445 51.0977 20.4721 51.0579 20.6204C50.8188 21.5 50.3792 23.0992 50.3792 23.0992C50.3818 23.0992 50.3857 23.0966 50.3882 23.0966C50.2867 23.4987 50.2134 23.8162 50.126 24.1298C48.9512 28.3601 47.5348 32.507 45.9667 36.602C45.8999 36.7763 45.8099 36.9507 45.7984 37.1303C45.7907 37.2461 45.8832 37.4465 45.9706 37.4738C46.0953 37.5115 46.2958 37.466 46.3935 37.3775C46.504 37.276 46.5426 37.0899 46.6017 36.9351C46.8575 36.2624 47.1107 35.5883 47.369 34.8987C48.6878 34.7673 49.9641 34.6397 51.2905 34.5083C51.2494 34.6996 51.2327 34.8193 51.1993 34.9312C50.9679 35.7041 50.7327 36.4758 50.5 37.2487C50.4589 37.3866 50.3921 37.535 50.4114 37.6677C50.4281 37.7887 50.5283 37.9566 50.6273 37.9891C50.7263 38.0203 50.9024 37.9396 50.9859 37.8512C51.0772 37.7536 51.1093 37.5948 51.1556 37.4582C51.3304 36.9273 51.5039 36.3964 51.671 35.8642C52.874 32.0334 53.8599 28.1428 54.8457 24.2521C54.8611 24.1884 55.3251 22.0999 55.6477 20.6204C55.766 20.0791 55.865 19.6198 55.9177 19.3699C56.3302 19.638 56.685 19.8709 57.0436 20.0986C57.2659 20.2392 57.4922 20.4369 57.7647 20.2118C58.0024 20.0153 57.9112 19.7681 57.8431 19.5248C57.6271 18.7467 57.4163 17.9685 57.2068 17.1904C57.1104 16.8339 57.0243 16.476 56.9331 16.1117C57.7801 15.435 58.5975 14.7818 59.415 14.1273C59.559 14.0115 59.7145 13.9035 59.8353 13.7656C60.0692 13.4962 59.9831 13.2061 59.6451 13.0876M51.5759 33.7562C50.2687 33.8824 49.0335 34.0021 47.7405 34.1271C47.761 33.9735 47.7585 33.8577 47.7932 33.7549C48.0027 33.129 48.2327 32.5096 48.4307 31.8812C48.5091 31.6339 48.6196 31.4934 48.8895 31.4752C49.9859 31.4036 51.081 31.3216 52.2828 31.2358C52.0373 32.1102 51.8136 32.9104 51.5759 33.7562ZM52.4769 30.4889C51.2648 30.5812 50.0939 30.671 48.8407 30.766C49.1093 29.9436 49.351 29.2059 49.6055 28.429C50.7661 28.308 51.9139 28.1883 53.1285 28.0621C52.8997 28.9157 52.6928 29.6873 52.4781 30.4889M53.3149 27.2996C52.1812 27.431 51.0553 27.5611 49.8317 27.7016C50.0772 26.8715 50.2983 26.1259 50.5219 25.3699C51.6491 25.2814 52.7378 25.1955 53.8946 25.1044C53.6928 25.8682 53.5115 26.5592 53.3149 27.3009M54.1863 23.8383V23.8409C54.1478 23.9997 54.1118 24.1558 54.0707 24.3263C52.9897 24.433 51.919 24.5397 50.7417 24.6568C50.9538 23.8552 51.1453 23.1318 51.3432 22.3862C52.4177 22.3094 53.4537 22.2352 54.5436 22.1558C54.5308 22.2912 54.221 23.6926 54.1863 23.8383ZM54.7634 21.392C53.6979 21.4831 52.6709 21.5703 51.5579 21.664C51.6414 21.2996 51.7185 20.9548 51.7956 20.6204C51.8676 20.3068 51.9383 20.0036 52.0141 19.6991C52.036 19.6107 52.1183 19.5196 52.1967 19.4649C52.8175 19.0368 53.4434 18.6178 54.0925 18.1806C54.5179 18.4539 54.8765 18.6855 55.2853 18.9483C55.167 19.5027 55.0475 20.0544 54.9267 20.6204C54.8727 20.8741 54.8174 21.1305 54.7622 21.392M58.2646 14.1807C57.6875 14.6426 57.1014 15.0941 56.5256 15.5587C56.1117 15.8918 56.1117 15.9243 56.2673 16.4552C56.5269 17.3426 56.7814 18.2301 56.9498 19.1956C56.7184 19.0485 56.4858 18.9015 56.2544 18.7519C55.6696 18.3732 55.0809 17.9998 54.5012 17.6107C54.2056 17.4129 53.946 17.4285 53.6568 17.6328C53.036 18.0687 52.4023 18.4864 51.7712 18.9093C51.6041 19.0212 51.428 19.1214 51.1851 19.271C51.2173 19.0602 51.225 18.9249 51.2597 18.7987C51.4666 18.0635 51.653 17.3192 51.9023 16.5996C52.0707 16.1156 52.0013 15.7851 51.5823 15.4793C51.0373 15.0785 50.527 14.6283 50.0039 14.1976C49.8522 14.0727 49.7096 13.936 49.4757 13.7252C50.3175 13.6589 51.0412 13.6003 51.7661 13.547C51.9499 13.534 52.1337 13.5262 52.3175 13.5314C52.6967 13.5418 52.91 13.3674 53.0437 13.0031C53.3624 12.1326 53.7159 11.275 54.0976 10.3043C54.23 10.5828 54.3316 10.7702 54.41 10.9654C54.6748 11.6147 54.955 12.2601 55.1812 12.9237C55.3328 13.3687 55.6002 13.5275 56.0462 13.5405C56.8431 13.5626 57.6374 13.6264 58.433 13.6758C58.5076 13.6797 58.5821 13.6966 58.7723 13.7226C58.5513 13.923 58.415 14.0623 58.2634 14.182" fill="white"/>
<path d="M10.5281 21.5456C10.6939 20.9353 10.8173 20.3484 11.0139 19.7863C12.1476 16.5541 15.3865 14.1052 19.0124 14.3928C21.4635 14.588 23.3966 15.7473 24.8927 17.6927C24.9557 17.7733 25.011 17.8618 25.0586 17.9529C25.1601 18.1442 25.119 18.3198 24.9609 18.4552C24.7732 18.6165 24.574 18.5827 24.4108 18.4187C24.2809 18.2886 24.1833 18.126 24.0676 17.9815C22.6255 16.1872 20.7515 15.2282 18.479 15.1826C16.5857 15.1449 14.9804 15.9464 13.6244 17.2502C12.4123 18.4161 11.6823 19.8475 11.4561 21.5339C11.3404 22.3979 11.3352 22.3979 10.4869 22.4356C7.7492 22.5579 5.17343 24.7427 4.4935 27.5208C4.07962 29.2137 4.20173 30.8506 4.99734 32.4147C5.11816 32.6528 5.26854 32.8779 5.41764 33.1004C5.84051 33.7315 6.34178 34.0516 7.18623 34.049C19.7772 34.0113 32.3681 34.0191 44.9591 34.0178C45.1223 34.0178 45.31 33.9813 45.4424 34.049C45.5812 34.1206 45.7213 34.2845 45.7611 34.4341C45.8151 34.6358 45.6686 34.7894 45.4604 34.8258C45.2997 34.8531 45.1339 34.8557 44.9707 34.8557C37.5184 34.8583 30.0661 34.8596 22.6139 34.8596C17.3312 34.8596 12.0499 34.8479 6.76722 34.8688C6.13999 34.8714 5.67342 34.6801 5.24412 34.239C4.3007 33.2735 3.78143 32.0972 3.53337 30.792C2.9267 27.5923 4.37782 24.312 7.12197 22.6191C8.06667 22.0361 8.95997 21.7512 10.5268 21.5443" fill="white"/>
<path d="M5.95746 29.4596C6.08985 27.2944 6.94201 25.6106 8.8867 24.6022C9.01266 24.5371 9.15404 24.4525 9.28386 24.4564C9.42396 24.4616 9.56149 24.5618 9.7003 24.6204C9.63861 24.757 9.59619 24.9093 9.5075 25.0238C9.45224 25.0953 9.32499 25.1057 9.23245 25.15C7.57439 25.9372 6.49987 27.7915 6.62711 29.6496C6.63868 29.8149 6.69652 29.9892 6.65924 30.1415C6.62583 30.2781 6.49215 30.39 6.40347 30.5123C6.2865 30.4199 6.10399 30.3484 6.06671 30.2299C5.98831 29.9788 5.98702 29.7029 5.95618 29.4596" fill="white"/>
<path d="M17.326 17.2229C17.1628 17.3791 17.0677 17.5118 16.9392 17.5821C16.7618 17.6797 16.551 17.7135 16.3672 17.7994C14.9713 18.4565 14.0498 19.5326 13.6063 21.0251C13.5652 21.163 13.5601 21.3244 13.4842 21.4363C13.4148 21.5378 13.2336 21.6679 13.1668 21.638C13.0459 21.5833 12.9277 21.4311 12.893 21.2971C12.8609 21.1721 12.929 21.0147 12.9714 20.8768C13.5344 19.0707 14.6783 17.7968 16.4083 17.072C16.5741 17.003 16.7644 16.9497 16.9392 16.9575C17.0497 16.9627 17.1538 17.0967 17.326 17.2203" fill="white"/>
<path d="M38.2472 19.3218C38.1071 19.1838 37.9875 19.1058 37.9232 18.9952C37.76 18.7102 37.6366 18.4018 37.4683 18.1194C37.039 17.3986 36.4541 16.8325 35.7344 16.4083C35.611 16.3355 35.4644 16.2847 35.3758 16.1819C35.3102 16.1051 35.2665 15.9256 35.3115 15.8553C35.3758 15.7551 35.5223 15.6836 35.6457 15.6588C35.7279 15.6432 35.8346 15.7213 35.9233 15.7707C37.0917 16.4226 37.9168 17.3908 38.4605 18.6126C38.5081 18.7206 38.5492 18.8624 38.5184 18.9665C38.4836 19.0823 38.3654 19.1734 38.2459 19.3205" fill="white"/>
<path d="M44.5516 19.8228C45.1969 19.8033 45.7444 20.0557 46.238 20.4461C46.3459 20.5319 46.468 20.6464 46.4989 20.7688C46.5272 20.882 46.4719 21.055 46.3909 21.1422C46.3357 21.2034 46.1699 21.1826 46.0606 21.1617C45.9899 21.1487 45.9269 21.0719 45.8678 21.0173C45.3845 20.571 44.8177 20.4057 44.175 20.5007C43.9257 20.5384 43.6288 20.5879 43.6044 20.2418C43.5825 19.9282 43.8743 19.8761 44.1262 19.8488C44.2676 19.8332 44.4103 19.8306 44.5529 19.8228" fill="white"/>
<path d="M49.5399 6.91333C49.6003 6.96538 49.7327 7.03435 49.8021 7.14495C50.1787 7.73701 50.5386 8.33947 50.9049 8.93803C51.0296 9.14232 51.0373 9.3349 50.8098 9.46893C50.6042 9.59124 50.4499 9.47934 50.3445 9.31018C49.9628 8.69731 49.5785 8.08573 49.2199 7.45724C49.0592 7.17618 49.2019 6.91203 49.5386 6.91333" fill="white"/>
<path d="M54.6272 6.104C54.6272 6.49566 54.6298 6.88863 54.6259 7.2803C54.6234 7.48199 54.5617 7.66416 54.329 7.67457C54.0617 7.68758 53.9846 7.495 53.9833 7.26599C53.9794 6.48135 53.9807 5.69802 53.9781 4.91338C53.9781 4.69998 54.0527 4.53993 54.2789 4.52562C54.5488 4.5087 54.6221 4.69217 54.6221 4.9277C54.6221 5.31936 54.6221 5.71233 54.6221 6.104H54.6272Z" fill="white"/>
<path d="M62.8172 15.0317C62.4278 15.0317 62.0396 15.0356 61.6502 15.0304C61.4432 15.0278 61.2697 14.9341 61.2787 14.709C61.2877 14.5021 61.4342 14.3798 61.654 14.3798C62.4111 14.3798 63.1694 14.3759 63.9265 14.3772C64.1398 14.3772 64.2915 14.4826 64.2928 14.7051C64.2941 14.9367 64.1295 15.0239 63.9213 15.0265C63.5524 15.0304 63.1848 15.0265 62.816 15.0265V15.0304L62.8172 15.0317Z" fill="white"/>
<path d="M57.9639 9.53142C57.8649 9.37397 57.7415 9.24776 57.7081 9.10072C57.6863 9.00833 57.7904 8.87691 57.8533 8.77411C58.1631 8.26794 58.4793 7.76437 58.7942 7.26079C58.8379 7.19183 58.8777 7.09033 58.9407 7.06952C59.077 7.02527 59.2749 6.95891 59.3572 7.02137C59.442 7.08643 59.4895 7.33366 59.4343 7.43386C59.1271 7.98948 58.7826 8.52428 58.451 9.06428C58.397 9.15147 58.352 9.24906 58.2826 9.31932C58.2158 9.38829 58.1207 9.42993 57.9652 9.53012" fill="white"/>
<path d="M45.8524 14.3642C46.1981 14.3642 46.5439 14.3642 46.8883 14.3642C47.0901 14.3642 47.2688 14.4305 47.2829 14.6582C47.2996 14.9185 47.1248 15.0161 46.8909 15.0161C46.1596 15.0187 45.4269 15.02 44.6956 15.0187C44.4964 15.0187 44.3164 14.9575 44.2997 14.7272C44.2804 14.4591 44.4668 14.3759 44.6943 14.372C45.0799 14.3668 45.4668 14.3707 45.8524 14.3707V14.3629V14.3642Z" fill="white"/>
<path d="M48.378 11.2399C48.3793 11.5353 48.1415 11.6928 47.8986 11.5822C47.6582 11.4729 47.4359 11.3206 47.2071 11.1853C46.9076 11.0083 46.594 10.8496 46.3202 10.6388C46.2264 10.5672 46.1595 10.3278 46.2084 10.2328C46.2585 10.1352 46.5091 10.0389 46.5978 10.0858C47.1582 10.3798 47.7006 10.709 48.2417 11.0396C48.3163 11.0851 48.351 11.1996 48.378 11.2412" fill="white"/>
<path d="M62.5409 10.4358C62.4946 10.493 62.4368 10.6114 62.343 10.6713C61.861 10.9771 61.3713 11.2698 60.8815 11.5652C60.6952 11.6771 60.5191 11.6576 60.4111 11.4624C60.307 11.275 60.3571 11.1033 60.5486 10.9914C61.0576 10.6921 61.5628 10.3811 62.0807 10.1C62.3147 9.97253 62.5602 10.1417 62.5396 10.4371" fill="white"/>
<path d="M19.1319 17.15C19.0355 17.2268 18.9237 17.3843 18.7836 17.4142C18.569 17.461 18.3903 17.3413 18.3685 17.0915C18.3492 16.8703 18.479 16.748 18.6859 16.731C18.9134 16.7128 19.0677 16.8182 19.1319 17.15Z" fill="white"/>
<path d="M34.6058 15.5456C34.3758 15.6927 34.2421 15.841 34.1084 15.8397C34.012 15.8397 33.8539 15.651 33.8346 15.5287C33.7999 15.3166 33.9632 15.1696 34.1675 15.2086C34.2922 15.232 34.3963 15.3778 34.6045 15.5456" fill="white"/>
<path d="M36.9695 8.39156C35.7523 8.3226 34.5634 9.05909 33.7331 9.9309C33.7048 9.89577 33.6714 9.86454 33.6328 9.83722C33.6316 9.83722 33.629 9.83592 33.6277 9.83461C34.2459 8.89253 35.1971 8.02332 36.3063 7.85156C36.3821 7.83984 36.368 7.72013 36.2922 7.73184C35.1405 7.91011 34.1624 8.80405 33.5236 9.77866C33.3064 9.69148 33.0506 9.76305 32.9105 9.96474C32.8089 10.1092 32.791 10.2874 32.8462 10.4423C32.7421 10.5204 32.629 10.6114 32.5069 10.7155C32.9979 9.41822 33.7087 6.88085 32.764 4.84183C32.1946 3.61348 31.7563 2.86919 31.4337 2.28364C31.3527 2.1366 31.2794 1.99997 31.2126 1.86855C31.2126 1.86855 31.2126 1.86725 31.2126 1.86595C31.192 1.82561 31.1727 1.78527 31.1535 1.74623C31.1496 1.73713 31.1445 1.72802 31.1406 1.71891C31.1252 1.68768 31.111 1.65515 31.0969 1.62392C31.0918 1.61221 31.0866 1.6005 31.0815 1.58879C31.0686 1.56016 31.0558 1.53023 31.0442 1.5016C31.0391 1.48859 31.0339 1.47688 31.0288 1.46387C31.0172 1.43524 31.0056 1.40531 30.9941 1.37669C30.9889 1.36498 30.9851 1.35327 30.9799 1.34025C30.9684 1.30902 30.9568 1.27649 30.9452 1.24396C30.9427 1.23485 30.9388 1.22575 30.9362 1.21664C30.908 1.13336 30.8835 1.04878 30.8604 0.960297C30.8578 0.948586 30.8553 0.938177 30.8527 0.926466C30.845 0.893935 30.8373 0.861405 30.8296 0.827573C30.8257 0.811958 30.8231 0.796344 30.8193 0.779428C30.8129 0.7495 30.8077 0.719572 30.8026 0.689644C30.7987 0.671427 30.7961 0.65321 30.7936 0.634993C30.7884 0.605065 30.7833 0.575136 30.7794 0.543907C30.7769 0.524389 30.7743 0.506172 30.7717 0.485352C30.7679 0.454123 30.764 0.421593 30.7602 0.389062C30.7576 0.369544 30.7563 0.350025 30.7537 0.330507C30.7499 0.295374 30.7473 0.257639 30.7434 0.221205C30.7422 0.202988 30.7396 0.186072 30.7383 0.167855C30.7344 0.111902 30.7306 0.0559498 30.728 -0.00390625C30.728 -0.00390625 29.399 1.43004 27.4518 2.90952C25.5032 4.38901 24.7063 8.29007 27.4518 10.0376C27.4518 10.0376 24.6382 8.80665 22.4917 10.3512C20.4712 11.8047 20.2334 13.2646 19.4802 13.0408C19.4802 13.0408 19.4802 13.0408 19.4815 13.0421C19.4815 13.0421 19.4815 13.0421 19.4828 13.0434C19.4841 13.0447 19.4867 13.046 19.4879 13.0486C19.7489 13.2776 25.3323 18.0974 30.1239 13.9699C29.8617 14.5281 29.6149 15.1592 29.4016 15.8697C29.4016 15.8697 32.3617 13.9998 33.2922 10.7845C33.4696 10.7988 33.6483 10.722 33.7588 10.5646C33.8719 10.4019 33.8809 10.1951 33.7999 10.0285C34.6032 9.1749 35.7742 8.43971 36.9605 8.50737C37.0376 8.51127 37.0466 8.39156 36.9708 8.38766" fill="white"/>
<path d="M56.2673 16.4552C56.5269 17.3426 56.7814 18.2301 56.9498 19.1956C56.7184 19.0485 56.4858 18.9015 56.2544 18.7518C55.6696 18.3732 55.0809 17.9997 54.5012 17.6107C54.2056 17.4129 53.946 17.4285 53.6568 17.6328C53.036 18.0687 52.4023 18.4864 51.7712 18.9093C51.6041 19.0212 51.428 19.1214 51.1851 19.271C51.2173 19.0602 51.225 18.9249 51.2597 18.7987C51.4666 18.0635 51.653 17.3205 51.9023 16.5996C52.0707 16.1156 52.0013 15.7851 51.5823 15.4793C51.0373 15.0785 50.527 14.6283 50.0039 14.1976C49.8522 14.0727 49.7096 13.936 49.4756 13.7252C50.3175 13.6589 51.0412 13.6003 51.7661 13.547C51.9499 13.5326 52.135 13.5261 52.3175 13.5313C52.6967 13.5418 52.91 13.3674 53.0437 13.0031C53.3624 12.1325 53.7159 11.275 54.0976 10.3043C54.23 10.5828 54.3316 10.7702 54.4113 10.9653C54.676 11.6146 54.9562 12.2601 55.1824 12.9237C55.3341 13.3687 55.6015 13.5287 56.0475 13.5405C56.8431 13.5626 57.6387 13.6263 58.4343 13.6758C58.5088 13.6797 58.5834 13.6966 58.7736 13.7226C58.5525 13.923 58.4163 14.0622 58.2646 14.1833C57.6875 14.6452 57.1014 15.0967 56.5256 15.5612C56.1117 15.8944 56.1117 15.9269 56.2673 16.4578" fill="white"/>
<path d="M5.13618 48.6786C4.77243 48.7619 4.39069 48.7931 3.99225 48.7749C3.75575 48.7567 3.52053 48.7176 3.28404 48.6578C3.04754 48.5979 2.85731 48.4756 2.71207 48.2921C2.63881 48.2011 2.58225 48.1009 2.54112 47.9955C2.49999 47.8901 2.46658 47.786 2.43958 47.6845C2.40359 47.5192 2.38303 47.3514 2.37789 47.1809C2.37275 47.0104 2.37146 46.8387 2.37146 46.663C2.37146 46.2674 2.39588 45.8719 2.44601 45.4763C2.49614 45.0807 2.55269 44.6878 2.61696 44.2974C2.67994 43.907 2.73906 43.5128 2.79433 43.1185C2.84831 42.7229 2.88559 42.3273 2.90358 41.9331C2.47686 41.9877 2.05399 42.0164 1.63626 42.0164C1.50901 42.0072 1.3792 41.9981 1.2481 41.989C1.11699 41.9799 0.987177 41.9526 0.85993 41.9058C0.732684 41.8602 0.614435 41.7912 0.505183 41.6989C0.395931 41.6078 0.309815 41.5011 0.246835 41.3814C0.192851 41.2799 0.151721 41.1771 0.12473 41.0704C0.0977379 40.965 0.0746022 40.857 0.0566078 40.7464C0.0206189 40.5629 0.00262451 40.3768 0.00262451 40.1881V39.6156C0.00262451 39.4321 0.00519514 39.2435 0.00905109 39.0496C0.012907 38.857 0.0334721 38.6683 0.0707463 38.4835C0.0977379 38.3365 0.138868 38.1934 0.192851 38.0554C0.246835 37.9175 0.323954 37.7978 0.424208 37.6963C0.524463 37.5857 0.643997 37.4959 0.785382 37.427C0.926767 37.358 1.06944 37.3098 1.21468 37.2825C1.50516 37.2279 1.80335 37.1979 2.10669 37.1927C2.41131 37.1875 2.71336 37.1992 3.01283 37.2266C3.16707 37.2448 3.32388 37.2656 3.48326 37.289C3.64135 37.3124 3.78017 37.3749 3.89842 37.4751C4.01667 37.5766 4.09764 37.6976 4.14391 37.8407C4.1889 37.9839 4.22103 38.1322 4.23903 38.2884C4.37527 38.2793 4.59506 38.2662 4.89968 38.2467C5.2043 38.2285 5.52177 38.2142 5.85338 38.2051C6.18499 38.196 6.50118 38.1986 6.80066 38.2116C7.10014 38.2246 7.3135 38.2558 7.44075 38.3014C7.55 38.3378 7.64897 38.3938 7.74023 38.4666C7.83148 38.5408 7.91246 38.628 7.98572 38.7282C8.0487 38.8297 8.09497 38.9351 8.12197 39.0457C8.14896 39.1563 8.17209 39.2708 8.19009 39.3905C8.21708 39.6299 8.22608 39.8641 8.21708 40.0945C8.20808 40.3248 8.18109 40.5538 8.13482 40.7841C8.11683 40.8674 8.09626 40.9481 8.07312 41.0248C8.04999 41.1029 8.02043 41.1784 7.98444 41.2525C7.88418 41.4178 7.74794 41.5466 7.57571 41.639C7.46645 41.6937 7.35335 41.7314 7.2351 41.7496C7.11685 41.7678 6.9986 41.7821 6.88035 41.7912C6.64385 41.8095 6.40607 41.8147 6.16443 41.8056C5.92408 41.7965 5.68501 41.7912 5.44979 41.7912C5.45879 41.9201 5.46779 42.0463 5.47679 42.1712C5.48578 42.2948 5.49992 42.421 5.51792 42.5499C5.59118 43.2213 5.66958 43.8901 5.75698 44.5563C5.8431 45.2226 5.90865 45.8927 5.95492 46.5628C5.97292 46.7281 5.98449 46.8933 5.98963 47.0599C5.99348 47.2251 5.9922 47.3904 5.9832 47.557C5.9832 47.7599 5.94207 47.9434 5.86109 48.1087C5.78783 48.2466 5.68629 48.3637 5.5539 48.46C5.42152 48.5563 5.28399 48.6279 5.13875 48.6734" fill="white"/>
<path d="M11.5537 41.0782C11.4445 41.1797 11.3198 41.2694 11.1784 41.3475C11.037 41.4256 10.8943 41.4646 10.7491 41.4646C10.6578 41.4646 10.5692 41.449 10.483 41.4165C10.3969 41.3839 10.3121 41.3501 10.2311 41.3124C10.1861 41.3033 10.1129 41.2694 10.0126 41.2096C9.91236 41.1497 9.84424 41.1055 9.80825 41.0782C9.66301 40.9676 9.52162 40.8465 9.38538 40.7125C9.24913 40.5798 9.13474 40.4301 9.04477 40.2636C8.98179 40.153 8.93166 40.0359 8.89439 39.9123C8.8584 39.7886 8.8494 39.6624 8.8674 39.5336C8.88539 39.3957 8.93552 39.2838 9.01778 39.1953C9.10004 39.1081 9.19901 39.0483 9.31726 39.0157C9.43551 38.9832 9.56018 38.9767 9.69128 38.9949C9.82239 39.0131 9.94835 39.0548 10.0666 39.1185C10.1386 39.1641 10.2054 39.2135 10.2645 39.263C10.3237 39.3137 10.3892 39.3671 10.4625 39.4217C10.5357 39.2929 10.6077 39.1784 10.681 39.0769C10.7632 38.9663 10.8584 38.8752 10.9676 38.801C11.0769 38.7282 11.19 38.6774 11.3082 38.6488C11.4265 38.6215 11.5447 38.6189 11.663 38.6423C11.7812 38.6657 11.8905 38.7229 11.9894 38.8153C12.0627 38.8804 12.1192 38.9585 12.1604 39.0496C12.2015 39.1419 12.2259 39.2382 12.2349 39.3384C12.2619 39.6507 12.2118 39.9656 12.0845 40.2831C11.9573 40.6006 11.7799 40.8648 11.5537 41.0769M11.8815 48.3611C11.6912 48.4444 11.4933 48.5016 11.2889 48.5341C11.0846 48.5667 10.8776 48.5875 10.6694 48.5966C10.4792 48.5966 10.2877 48.581 10.0974 48.5485C9.90722 48.5159 9.7337 48.4405 9.57946 48.3207C9.45221 48.2297 9.35967 48.1073 9.30055 47.9551C9.24142 47.8029 9.19772 47.6493 9.17073 47.4932C9.12574 47.2446 9.09361 46.9922 9.07562 46.7346C9.05762 46.4769 9.04863 46.2193 9.04863 45.9616V45.9473C9.00364 45.5609 8.97536 45.1731 8.96637 44.7814C8.95737 44.3911 8.9805 43.9981 9.03449 43.6025C9.05248 43.4464 9.07819 43.2902 9.10904 43.1341C9.14117 42.9779 9.21058 42.8439 9.31983 42.7346C9.41108 42.6435 9.54219 42.5668 9.71442 42.5069C9.88665 42.447 10.0705 42.4054 10.2658 42.3833C10.4612 42.3612 10.654 42.3508 10.8455 42.356C11.0357 42.3612 11.1951 42.3768 11.3223 42.4041C11.5486 42.4509 11.7581 42.5329 11.9496 42.6526C12.1398 42.7906 12.2671 42.9883 12.3313 43.246C12.3763 43.4386 12.3904 43.6324 12.3725 43.825C12.3545 44.0176 12.3403 44.2167 12.3313 44.4184C12.3223 44.7502 12.3133 45.0807 12.3043 45.4112C12.2953 45.7417 12.3095 46.0683 12.3455 46.391C12.3725 46.6305 12.3994 46.8712 12.4277 47.1158C12.4547 47.3591 12.4329 47.6012 12.3596 47.8406C12.3236 47.9512 12.2619 48.054 12.1758 48.1516C12.0897 48.2479 11.992 48.3194 11.8827 48.365" fill="white"/>
<path d="M15.5048 48.637C15.3236 48.6644 15.1346 48.68 14.9393 48.6852C14.7439 48.6904 14.5511 48.6735 14.3596 48.637C14.2503 48.6188 14.1398 48.5863 14.0254 48.5407C13.911 48.4952 13.8185 48.4301 13.7465 48.3482C13.6462 48.2467 13.5717 48.123 13.5216 47.976C13.4714 47.829 13.438 47.6819 13.42 47.5349C13.411 47.4516 13.411 47.2929 13.42 47.0586C13.429 46.8244 13.4406 46.5759 13.4547 46.3144C13.4689 46.0528 13.4817 45.8069 13.4959 45.5766C13.51 45.3462 13.5164 45.1901 13.5164 45.1081C13.5344 44.667 13.5434 44.2324 13.5434 43.8043V42.5005C13.5434 42.2793 13.5614 42.0542 13.5974 41.8251C13.6334 41.5948 13.7246 41.397 13.8699 41.2318C13.9791 41.1121 14.1154 41.021 14.2786 40.9559C14.4418 40.8922 14.6141 40.8518 14.7966 40.8388C14.9778 40.8245 15.1578 40.8362 15.3351 40.8726C15.5125 40.9091 15.6693 40.9689 15.8056 41.0522C15.9148 41.116 16.0099 41.1954 16.0922 41.2864C16.1744 41.3788 16.2516 41.4751 16.3235 41.5766C16.623 41.3099 16.9688 41.1212 17.3595 41.0106C17.7143 40.9091 18.0767 40.8779 18.4495 40.9143C18.8222 40.9507 19.1757 41.0522 19.5124 41.2175C19.7759 41.3463 20.0137 41.5259 20.2283 41.7549C20.4417 41.9852 20.6075 42.2376 20.7258 42.5135C20.844 42.8076 20.9365 43.1068 21.0047 43.41C21.0728 43.7132 21.1293 44.0216 21.1756 44.3339C21.2206 44.6371 21.2527 44.9403 21.2707 45.2447C21.2887 45.5479 21.2887 45.8511 21.2707 46.1556C21.2527 46.6436 21.1936 47.0977 21.0934 47.5206C21.0484 47.6676 20.9931 47.8147 20.9301 47.9617C20.8671 48.1087 20.7797 48.2324 20.6718 48.3338C20.6358 48.3612 20.5805 48.3885 20.5085 48.4171C20.4353 48.4444 20.3569 48.4692 20.2708 48.4926C20.1846 48.516 20.1024 48.5355 20.0253 48.5551C19.9481 48.5733 19.8864 48.5824 19.8415 48.5824C19.6319 48.6006 19.4147 48.5941 19.1872 48.5616C18.9597 48.529 18.7605 48.4484 18.5883 48.3195C18.425 48.1907 18.3068 48.0294 18.2335 47.8368C18.1783 47.6989 18.1423 47.5518 18.1243 47.3957C18.1063 47.2395 18.0973 47.0834 18.0973 46.9272C18.0973 46.5785 18.1011 46.2285 18.1114 45.8784C18.1204 45.5297 18.1153 45.1797 18.0973 44.8297C18.0883 44.6735 18.0767 44.5148 18.0626 44.3534C18.0484 44.1921 18.0189 44.0346 17.9739 43.8772C17.9559 43.7757 17.9238 43.6768 17.8788 43.5805C17.8338 43.4842 17.7747 43.3983 17.7014 43.3254C17.6371 43.2617 17.5562 43.2292 17.4559 43.2292C17.3467 43.2292 17.2515 43.2643 17.1693 43.3333C17.0883 43.4022 17.0176 43.492 16.9585 43.6026C16.8994 43.7132 16.8518 43.8303 16.8158 43.9539C16.7798 44.0776 16.7516 44.1947 16.7336 44.3053C16.6333 44.8023 16.5857 45.3007 16.5909 45.8017C16.596 46.3026 16.5883 46.8023 16.5703 47.2981C16.5613 47.4542 16.5408 47.6182 16.5086 47.7873C16.4765 47.9578 16.4109 48.1074 16.3107 48.2363C16.2194 48.356 16.1012 48.4471 15.9559 48.5121C15.8107 48.5759 15.6603 48.6175 15.5061 48.6357" fill="white"/>
<path d="M27.4543 50.5953C26.9993 50.806 26.5096 50.9349 25.9826 50.9817C25.4557 51.0273 24.9467 50.9869 24.457 50.8581C24.2667 50.8126 24.0778 50.7501 23.8914 50.672C23.7051 50.594 23.5251 50.5042 23.3529 50.4027C23.0354 50.201 22.84 49.9199 22.7668 49.5608C22.7128 49.2667 22.7411 48.9674 22.8555 48.6642C22.9686 48.3611 23.1434 48.1177 23.3799 47.933C23.6614 47.7117 23.9801 47.6389 24.3336 47.7118C24.5611 47.7573 24.7783 47.8341 24.9878 47.9395C25.196 48.0449 25.4184 48.0982 25.6549 48.0982C25.8451 48.0982 26.0366 48.0436 26.2268 47.933C26.4171 47.8224 26.5675 47.6896 26.6767 47.5322C26.8219 47.3214 26.9235 47.0911 26.9826 46.8425C27.0417 46.594 27.0854 46.3455 27.1124 46.0982C26.9029 46.3468 26.6471 46.5563 26.3425 46.7254C26.0379 46.8959 25.723 47.0039 25.3952 47.0494C25.1677 47.0676 24.9402 47.0546 24.714 47.0078C24.4865 46.9622 24.2693 46.8881 24.0598 46.7866C23.7051 46.6304 23.385 46.4027 23.0997 46.1034C22.813 45.8055 22.5933 45.4763 22.439 45.1171C22.2938 44.7775 22.1961 44.4249 22.146 44.0618C22.0958 43.6988 22.0663 43.3331 22.0573 42.9649C22.0573 42.7073 22.0521 42.447 22.0431 42.1855C22.0341 41.9239 22.0521 41.6637 22.0971 41.406C22.1151 41.2954 22.1447 41.1874 22.1858 41.082C22.2269 40.9766 22.2835 40.8816 22.3568 40.7997C22.475 40.68 22.6151 40.5928 22.7783 40.5381C22.9416 40.4835 23.101 40.4457 23.2552 40.4275C23.3914 40.4184 23.5277 40.4093 23.6639 40.4002C23.8002 40.3911 23.9364 40.3859 24.0727 40.3859C24.1999 40.3859 24.331 40.395 24.4672 40.4132C24.6035 40.4314 24.7217 40.477 24.822 40.5511C24.9043 40.6149 24.9672 40.7008 25.0122 40.8062C25.0572 40.9116 25.0855 41.0157 25.0945 41.1159C25.1215 41.5023 25.1099 41.8888 25.0611 42.274C25.0109 42.6604 24.9955 43.0469 25.0135 43.432C25.0315 43.6155 25.0636 43.7977 25.1086 43.9772C25.1536 44.1568 25.2269 44.3195 25.3271 44.4665C25.4724 44.6591 25.6613 44.7385 25.8927 44.7007C26.124 44.6643 26.3168 44.5485 26.4711 44.3559C26.6523 44.1165 26.768 43.8367 26.8181 43.514C26.8682 43.1926 26.8888 42.8751 26.8798 42.5628C26.8798 42.4522 26.8708 42.2896 26.8528 42.0736C26.8348 41.8576 26.8194 41.6325 26.8052 41.3982C26.7911 41.164 26.7898 40.9415 26.7988 40.7294C26.8078 40.5186 26.8348 40.3664 26.8811 40.274C26.8811 40.1907 26.9081 40.1178 26.9633 40.0528C27.0173 39.989 27.0854 39.9357 27.1677 39.894C27.25 39.8524 27.3386 39.8186 27.4338 39.7912C27.5289 39.7639 27.6176 39.7457 27.6998 39.7366C27.9723 39.691 28.2486 39.6767 28.5314 39.6949C28.6407 39.704 28.7499 39.7184 28.8579 39.7366C28.9671 39.7548 29.0713 39.7912 29.1715 39.8472C29.3078 39.9213 29.417 40.0515 29.498 40.2401C29.5802 40.4288 29.6458 40.6357 29.6959 40.8608C29.746 41.0859 29.7795 41.311 29.7987 41.5362C29.8167 41.7613 29.8309 41.9473 29.8399 42.0944C29.8579 42.4991 29.8617 42.8985 29.854 43.2941C29.845 43.6897 29.8399 44.0892 29.8399 44.4938C29.8399 45.1926 29.8039 45.8913 29.7306 46.5901C29.6574 47.2889 29.4993 47.9655 29.2538 48.6174C29.0995 49.0403 28.8605 49.4242 28.5378 49.769C28.2152 50.1138 27.8541 50.3871 27.4543 50.59" fill="white"/>
<path d="M34.2383 48.8582C34.0378 48.9311 33.8295 48.9662 33.611 48.9623C33.3925 48.9571 33.1792 48.9363 32.9709 48.8999C32.8167 48.8725 32.6638 48.8218 32.5147 48.7476C32.3643 48.6735 32.2447 48.5733 32.1535 48.4444C32.1175 48.3898 32.0854 48.2948 32.0584 48.1621C32.0314 48.0294 32.0108 47.8862 31.9967 47.734C31.9825 47.5817 31.971 47.4373 31.962 47.2994C31.953 47.1614 31.9478 47.056 31.9478 46.9819C31.9388 46.4484 31.9504 45.9149 31.9825 45.3814C32.0147 44.8479 32.0622 44.3196 32.1252 43.7952C31.98 43.8043 31.8347 43.8095 31.6895 43.8095C31.5442 43.8095 31.399 43.7913 31.2538 43.7548C31.0443 43.7093 30.8862 43.6078 30.7769 43.4517C30.7139 43.3606 30.6702 43.2357 30.6471 43.0795C30.624 42.9234 30.6175 42.7607 30.6265 42.5903C30.6355 42.4198 30.6535 42.2519 30.6805 42.0867C30.7075 41.9214 30.7396 41.7874 30.7756 41.6872C30.8206 41.5493 30.8964 41.4231 31.0006 41.3073C31.1047 41.1927 31.2203 41.1069 31.3476 41.0522C31.4928 40.9976 31.6445 40.9715 31.8039 40.9767C31.962 40.9819 32.1188 40.9924 32.2743 41.0119C32.3103 40.4419 32.4144 39.872 32.5879 39.3008C32.6329 39.1537 32.6972 39.0158 32.7781 38.887C32.8604 38.7582 32.9645 38.6567 33.0918 38.5838C33.201 38.5291 33.3411 38.4875 33.5146 38.4602C33.6869 38.4329 33.8642 38.4211 34.0468 38.425C34.228 38.4303 34.4028 38.4511 34.5712 38.4875C34.7395 38.5239 34.8784 38.5708 34.9863 38.6254C35.1586 38.7269 35.2819 38.874 35.3539 39.0666C35.3899 39.168 35.4105 39.2786 35.4156 39.3971C35.4208 39.5168 35.413 39.6313 35.395 39.7419C35.3771 39.9436 35.3513 40.144 35.3205 40.3417C35.2884 40.5395 35.2588 40.7399 35.2318 40.9416C35.422 40.9416 35.611 40.9468 35.7974 40.9546C35.9837 40.9637 36.1675 41.0015 36.3487 41.0652C36.503 41.1199 36.6418 41.2032 36.7639 41.3138C36.886 41.4244 36.9708 41.5532 37.0158 41.7002C37.0608 41.8473 37.0891 41.9995 37.0981 42.1556C37.1071 42.3118 37.1032 42.4679 37.0852 42.6241C37.0672 42.7438 37.0492 42.8609 37.0313 42.9754C37.0133 43.0912 36.9683 43.1992 36.895 43.2994C36.85 43.3918 36.7793 43.4673 36.6842 43.5271C36.5891 43.587 36.4914 43.626 36.3912 43.6442C36.1727 43.6898 35.9503 43.7106 35.7241 43.7067C35.4966 43.7028 35.2704 43.6911 35.0429 43.6716C35.0249 44.2142 35.0172 44.7542 35.0223 45.2929C35.0262 45.8303 35.0377 46.3716 35.057 46.9142C35.066 47.1354 35.0686 47.3579 35.0634 47.583C35.0583 47.8081 35.0197 48.0228 34.9478 48.2245C34.8848 48.3807 34.7884 48.5147 34.6611 48.624C34.5339 48.7346 34.3925 48.8127 34.2383 48.8582Z" fill="white"/>
<path d="M43.8036 48.8022C43.5671 48.8113 43.3267 48.7905 43.0812 48.7398C42.8357 48.689 42.6262 48.5758 42.454 48.4014C42.3447 48.3 42.2612 48.1737 42.2021 48.0215C42.1429 47.8692 42.0954 47.7157 42.0594 47.5596C41.8602 47.7157 41.6481 47.8588 41.4257 47.9877C41.2034 48.1165 40.9733 48.218 40.7381 48.2908C40.5286 48.3546 40.3088 48.3871 40.0774 48.3871C39.8461 48.3871 39.625 48.3507 39.4168 48.2765C39.1803 48.1933 38.9644 48.0696 38.7703 47.9044C38.5749 47.7391 38.4129 47.5505 38.287 47.3384C38.0685 46.9987 37.913 46.6253 37.8166 46.2206C37.7214 45.8159 37.6739 45.4073 37.6739 44.9936C37.6739 44.5798 37.724 44.1725 37.8243 43.773C37.9245 43.3735 38.0788 42.9988 38.287 42.6488C38.4232 42.4276 38.571 42.2194 38.7304 42.0216C38.8885 41.8238 39.0736 41.6468 39.2818 41.4907C39.4361 41.371 39.5993 41.2656 39.7728 41.1732C39.945 41.0821 40.1224 41.0027 40.3049 40.939C40.7407 40.7828 41.1905 40.6904 41.6532 40.6631C42.1159 40.6358 42.5748 40.6579 43.0298 40.7321C43.3203 40.7867 43.6018 40.8583 43.8743 40.9455C44.1467 41.0326 44.4192 41.1276 44.6917 41.2278C44.792 41.2643 44.8704 41.3267 44.9308 41.4139C44.9899 41.5011 45.0105 41.5961 44.9925 41.6963C44.9925 41.7145 44.9976 41.7262 45.0066 41.7314C45.0156 41.7366 45.0208 41.747 45.0208 41.7665C45.0298 41.803 45.0336 41.8589 45.0336 41.9318C45.0516 42.3638 45.0786 42.801 45.1159 43.2421C45.1249 43.3163 45.139 43.4425 45.157 43.6221C45.175 43.8016 45.1956 44.0033 45.2187 44.2284C45.2418 44.4535 45.2663 44.6956 45.2932 44.9532C45.3202 45.2109 45.3434 45.4542 45.3614 45.6845C45.3794 45.9148 45.3974 46.1191 45.4153 46.2987C45.4333 46.4782 45.4423 46.6045 45.4423 46.6773C45.4603 46.8985 45.4565 47.121 45.4282 47.3462C45.4012 47.5713 45.3421 47.7899 45.2508 48.002C45.1506 48.2414 44.9925 48.4249 44.774 48.5537C44.6287 48.6461 44.4745 48.7072 44.3113 48.7398C44.148 48.7723 43.9797 48.7931 43.8074 48.8022M39.143 40.2922C39.0518 40.3287 38.9618 40.3365 38.8705 40.3131C38.7793 40.2896 38.7163 40.2285 38.6803 40.127C38.6533 40.0437 38.6546 39.9669 38.6867 39.8928C38.7189 39.8199 38.7703 39.7509 38.8435 39.6859C38.9168 39.6221 38.9952 39.5636 39.0826 39.5128C39.1687 39.4621 39.2535 39.4139 39.3345 39.3684C39.562 39.2396 39.7998 39.1342 40.0492 39.0509C40.2985 38.9676 40.5504 38.8986 40.8049 38.844C41.0414 38.7984 41.2766 38.775 41.5131 38.775C41.7496 38.775 41.9848 38.7984 42.2213 38.844C42.2573 38.8531 42.3139 38.8739 42.391 38.9064C42.4681 38.939 42.5208 38.9637 42.5478 38.9819C42.6301 39.0652 42.6635 39.1641 42.6506 39.2786C42.6365 39.3931 42.5799 39.479 42.4797 39.5336C42.4064 39.5792 42.328 39.5961 42.2419 39.5818C42.1558 39.5675 42.0761 39.561 42.0028 39.561C41.9489 39.561 41.8576 39.5675 41.7304 39.5818C41.6031 39.5961 41.4669 39.6143 41.3216 39.6364C41.1764 39.6599 41.0427 39.682 40.9193 39.7054C40.7972 39.7288 40.7085 39.7444 40.6533 39.7535C40.4168 39.8082 40.1815 39.8785 39.945 39.9604C39.8088 40.006 39.6751 40.0619 39.5427 40.1257C39.4104 40.1908 39.2767 40.2454 39.1404 40.2909M40.7921 45.1471C40.864 45.3319 40.9874 45.4646 41.1597 45.5466C41.3319 45.6299 41.5093 45.6338 41.6905 45.5609C41.8088 45.5062 41.9103 45.4282 41.9977 45.3267C42.0838 45.2252 42.1635 45.1159 42.2355 44.9962C42.454 44.6188 42.5902 44.2193 42.6442 43.7964C42.6622 43.6585 42.6673 43.5154 42.6583 43.3683C42.6494 43.2213 42.6224 43.0834 42.5761 42.9545C42.5491 42.8713 42.5028 42.7958 42.4398 42.7268C42.3756 42.6579 42.3036 42.6097 42.2213 42.5824C42.1661 42.5642 42.1095 42.559 42.0504 42.5681C41.9913 42.5772 41.9296 42.5824 41.8666 42.5824H41.7573C41.6571 42.6188 41.5645 42.6696 41.4784 42.7346C41.3923 42.7984 41.3126 42.8674 41.2406 42.9415C41.0684 43.1159 40.9347 43.3228 40.8383 43.5622C40.7432 43.8016 40.6867 44.045 40.6674 44.2935C40.6584 44.4405 40.661 44.5876 40.6738 44.7346C40.688 44.8817 40.7265 45.0196 40.7895 45.1484" fill="white"/>
<path d="M49.3484 48.443C49.0579 48.6265 48.7199 48.7241 48.333 48.7332C47.9474 48.7423 47.5991 48.6695 47.2906 48.512C47.1364 48.4378 47.0001 48.3233 46.8819 48.1672C46.8086 48.0566 46.7572 47.9395 46.7251 47.8159C46.693 47.6922 46.6685 47.566 46.6505 47.4372C46.6235 47.1431 46.612 46.8438 46.6171 46.5407C46.621 46.2375 46.6287 45.9382 46.6377 45.6441V45.6168C46.5927 45.0924 46.5554 44.5732 46.5284 44.0579C46.5014 43.5426 46.4963 43.0235 46.5143 42.4991C46.5323 42.0853 46.549 41.6767 46.5619 41.272C46.576 40.8673 46.5966 40.4588 46.6235 40.045C46.6415 39.7691 46.6685 39.4893 46.7058 39.2031C46.7418 38.9181 46.8369 38.6566 46.9924 38.4171C47.0747 38.2792 47.1904 38.1673 47.3395 38.0788C47.4899 37.9916 47.6415 37.9253 47.7958 37.8784C47.995 37.8238 48.1981 37.8043 48.4024 37.8238C48.6068 37.842 48.8086 37.8745 49.0091 37.9201C49.1633 37.9565 49.3086 38.0073 49.4448 38.0723C49.5811 38.1374 49.7083 38.2194 49.8266 38.3209C49.8998 38.395 49.9628 38.4848 50.0168 38.5902C50.0708 38.6956 50.1119 38.8036 50.1389 38.9142C50.1839 39.1068 50.2019 39.3046 50.1929 39.5076C50.1839 39.7093 50.1697 39.9122 50.1517 40.1139C50.1517 40.1595 50.1427 40.2493 50.1248 40.3833C50.1068 40.516 50.09 40.6591 50.0772 40.8114C50.0631 40.9636 50.0476 41.1081 50.0296 41.246C50.0116 41.3839 50.0026 41.4763 50.0026 41.5219C49.9577 42.0645 49.9101 42.6006 49.86 43.1289C49.8098 43.6585 49.7983 44.1933 49.8253 44.7359C49.8433 45.0026 49.8664 45.272 49.8934 45.5426C49.9204 45.8146 49.9435 46.0826 49.9615 46.3494C49.9795 46.5888 49.9936 46.8256 50.0026 47.0598C50.0116 47.2941 49.9795 47.5218 49.9075 47.743C49.7983 48.0462 49.6119 48.2804 49.3484 48.4456" fill="white"/>
<path d="M55.6838 48.8439C55.2108 48.8621 54.7365 48.8556 54.2596 48.8231C53.7828 48.7905 53.3265 48.6734 52.8908 48.4717C52.6363 48.3429 52.4049 48.1751 52.1954 47.9682C51.9872 47.7613 51.8137 47.5388 51.6774 47.2993C51.4499 46.9038 51.2944 46.4783 51.207 46.0228C51.1209 45.5674 51.0862 45.1146 51.1055 44.6644C51.1235 44.3612 51.1466 44.058 51.1736 43.7535C51.2006 43.4503 51.2636 43.1511 51.3638 42.857C51.4461 42.6176 51.5527 42.3859 51.6839 42.1608C51.815 41.9357 51.9718 41.7314 52.1543 41.5466C52.3728 41.3163 52.6196 41.1212 52.8972 40.9611C53.1748 40.7998 53.4576 40.6735 53.7481 40.5824C54.293 40.4081 54.8586 40.3456 55.4447 40.3964C56.0308 40.4471 56.5822 40.6007 57.1002 40.8583C57.3547 40.9871 57.5835 41.1615 57.7878 41.3827C57.9922 41.6039 58.1439 41.8472 58.2441 42.114C58.3444 42.3716 58.3945 42.6436 58.3945 42.9285C58.3945 43.2135 58.3624 43.4894 58.2994 43.7561C58.2544 43.9396 58.1927 44.1218 58.1156 44.3013C58.0385 44.4809 57.9356 44.6396 57.8084 44.7776C57.6452 44.961 57.4446 45.1107 57.2094 45.2252C56.9729 45.3397 56.7364 45.4204 56.5012 45.4672C56.0925 45.5596 55.6773 45.5817 55.2545 45.5362C54.8316 45.4906 54.4164 45.4126 54.0077 45.302C53.9627 45.2838 53.9306 45.2929 53.9126 45.3293C53.8856 45.3657 53.8715 45.4165 53.8715 45.4815C53.8715 45.5466 53.874 45.613 53.8779 45.6819C53.883 45.7509 53.892 45.8199 53.9049 45.8888C53.919 45.9578 53.9344 46.0111 53.9524 46.0476C53.9794 46.14 54.0154 46.2128 54.0617 46.2688C54.0977 46.3052 54.1542 46.3403 54.2326 46.3729C54.3098 46.4054 54.392 46.4301 54.4781 46.4483C54.5642 46.4666 54.6504 46.4835 54.7365 46.4965C54.8226 46.5095 54.8933 46.5173 54.9473 46.5173C55.5642 46.5446 56.1915 46.4939 56.8277 46.3651C56.8997 46.3468 56.9755 46.3299 57.0526 46.3169C57.1297 46.3026 57.2043 46.2779 57.2775 46.2414C57.3315 46.2141 57.3907 46.1998 57.4549 46.1998C57.6182 46.1907 57.775 46.2532 57.9254 46.3859C58.0757 46.5199 58.1734 46.6643 58.2184 46.8205C58.2544 46.9766 58.257 47.1432 58.2248 47.3176C58.1927 47.4919 58.1503 47.6585 58.095 47.8146C58.032 48.0072 57.9151 48.1751 57.748 48.3182C57.5796 48.4613 57.4009 48.5641 57.2094 48.6292C56.9639 48.7034 56.7146 48.7528 56.4601 48.7814C56.2056 48.8088 55.9472 48.8322 55.6838 48.8504M53.2584 39.492C53.3316 39.6208 53.3496 39.7406 53.3123 39.8512C53.2764 39.9618 53.2121 40.0489 53.1221 40.1127C53.0309 40.1765 52.9319 40.2051 52.8226 40.196C52.7134 40.1869 52.6221 40.1179 52.5502 39.9891C52.4769 39.8694 52.4589 39.7497 52.4962 39.63C52.5322 39.5102 52.5964 39.4205 52.6864 39.3606C52.7777 39.3007 52.8766 39.276 52.9859 39.2851C53.0951 39.2942 53.1851 39.3632 53.2584 39.492ZM54.5527 39.7132C54.4074 39.8147 54.2506 39.8368 54.0823 39.7822C53.9139 39.7275 53.7943 39.6208 53.7211 39.4647C53.6298 39.2903 53.6208 39.1134 53.6941 38.9338C53.7661 38.7542 53.8985 38.6462 54.0887 38.6098C54.1067 38.6098 54.1272 38.6007 54.1504 38.5825C54.1735 38.5643 54.1928 38.5551 54.2121 38.5551C54.3303 38.4914 54.4524 38.4914 54.5797 38.5551C54.6889 38.6111 54.7686 38.6892 54.8187 38.7894C54.8689 38.8909 54.8907 38.9963 54.8869 39.1069C54.8817 39.2175 54.8509 39.3281 54.7917 39.4374C54.7326 39.548 54.6529 39.6391 54.554 39.7132M54.2391 43.9331C54.302 43.9968 54.3972 44.0463 54.5244 44.0775C54.6516 44.11 54.7828 44.1283 54.919 44.1322C55.0552 44.1374 55.1915 44.1296 55.3277 44.1114C55.464 44.0931 55.5771 44.0697 55.6683 44.0424C55.8406 43.9877 55.9768 43.8954 56.0771 43.7665C56.1773 43.6377 56.2403 43.4959 56.2673 43.3384C56.2943 43.1823 56.2814 43.0235 56.2262 42.8622C56.1722 42.7008 56.0758 42.5616 55.9408 42.4419C55.8136 42.3313 55.6632 42.2402 55.491 42.166C55.3187 42.0919 55.1452 42.0645 54.973 42.0828C54.7725 42.101 54.6002 42.1751 54.455 42.304C54.3098 42.4328 54.2031 42.5954 54.135 42.7932C54.0668 42.991 54.0373 43.1862 54.0463 43.3788C54.0463 43.4803 54.0591 43.5818 54.0874 43.682C54.1144 43.7834 54.1645 43.8667 54.2378 43.9305M56.311 39.5883C56.2467 39.643 56.1786 39.6729 56.1066 39.6781C56.0334 39.6833 55.9652 39.6664 55.9023 39.63C55.838 39.5935 55.7879 39.5376 55.7519 39.4647C55.7159 39.3905 55.6966 39.3125 55.6966 39.2305C55.7056 39.1199 55.7493 39.0236 55.8264 38.9403C55.9035 38.857 55.9961 38.8206 56.1053 38.8297C56.1966 38.8297 56.2711 38.8596 56.3303 38.9195C56.3894 38.9793 56.4305 39.0483 56.4524 39.1264C56.4755 39.2045 56.4755 39.2877 56.4524 39.3749C56.4292 39.4621 56.3817 39.5337 56.3097 39.5883" fill="white"/>
<path d="M63.0267 48.8295C62.645 48.8478 62.271 48.8504 61.9021 48.836C61.5345 48.823 61.1643 48.7788 60.7916 48.7046C60.5641 48.6591 60.3366 48.5901 60.1104 48.4977C59.8829 48.4053 59.6926 48.2726 59.5384 48.0969C59.4381 47.9772 59.3559 47.8302 59.2929 47.6558C59.2299 47.4815 59.1888 47.3019 59.1708 47.1184C59.1528 46.935 59.1567 46.7515 59.1849 46.5667C59.2119 46.3832 59.2672 46.2271 59.3482 46.0983C59.4574 45.9421 59.5847 45.8315 59.7299 45.7678C59.9381 45.6845 60.1566 45.6415 60.3841 45.6363C60.6116 45.6311 60.8289 45.652 61.0384 45.6988C61.1746 45.7261 61.3083 45.7626 61.4407 45.8094C61.5718 45.8562 61.7067 45.8992 61.843 45.9408C61.9792 45.9825 62.1155 46.0163 62.2517 46.0436C62.3879 46.071 62.5242 46.0801 62.6604 46.0709C62.7607 46.0709 62.8597 46.0501 62.9599 46.0085C63.0602 45.9668 63.1103 45.8966 63.1103 45.7951C63.1103 45.7313 63.0807 45.6741 63.0216 45.622C62.9625 45.5713 62.8918 45.5296 62.8108 45.4984C62.7285 45.4659 62.6424 45.4386 62.5525 45.4151C62.4612 45.393 62.3841 45.3722 62.3211 45.3527C62.0306 45.2694 61.7376 45.19 61.4419 45.1106C61.1463 45.0326 60.8623 44.9298 60.5898 44.801C60.3996 44.7086 60.217 44.5993 60.0448 44.4704C59.8726 44.3416 59.7363 44.1855 59.6361 44.002C59.4908 43.7353 59.3957 43.4503 59.3495 43.1471C59.3045 42.8439 59.3173 42.5446 59.3906 42.2506C59.4356 42.0294 59.5217 41.8212 59.6489 41.6234C59.7762 41.4256 59.9214 41.2486 60.0847 41.0925C60.5024 40.7242 60.9882 40.4991 61.5422 40.4171C61.8507 40.3625 62.1669 40.3547 62.4895 40.3963C62.8121 40.438 63.118 40.5186 63.4085 40.6371C63.5267 40.5733 63.6758 40.5082 63.8583 40.4445C64.0396 40.3807 64.2259 40.33 64.4175 40.2922C64.6077 40.2558 64.7915 40.2389 64.9689 40.2441C65.1462 40.2493 65.2889 40.2922 65.3981 40.3755C65.4431 40.4119 65.4817 40.4588 65.5138 40.5134C65.546 40.5681 65.5704 40.6292 65.5884 40.693C65.6154 40.7945 65.6359 40.9441 65.6501 41.1406C65.6642 41.3384 65.6706 41.5453 65.6706 41.7613C65.6706 41.9773 65.6616 42.1868 65.6436 42.3885C65.6257 42.5902 65.6025 42.7424 65.5755 42.8439C65.5395 42.9454 65.4868 43.0417 65.4187 43.1341C65.3506 43.2265 65.267 43.2954 65.1668 43.341C65.0395 43.406 64.9007 43.436 64.7516 43.4308C64.6013 43.4269 64.4547 43.4061 64.3095 43.3683C63.992 43.2941 63.6874 43.194 63.3969 43.0651C63.1064 42.9363 62.8018 42.8348 62.4843 42.7619C62.4021 42.7437 62.3185 42.7372 62.2324 42.7411C62.1463 42.7463 62.0692 42.7646 62.0011 42.7958C61.9329 42.8283 61.8764 42.8712 61.8314 42.9272C61.7851 42.9832 61.7671 43.0508 61.7774 43.1341C61.7864 43.2265 61.8314 43.302 61.9137 43.3618C61.9959 43.4217 62.082 43.4698 62.172 43.5062C62.217 43.5245 62.3108 43.5505 62.4509 43.5817C62.591 43.6142 62.744 43.6481 62.9072 43.6845C63.0704 43.7209 63.2247 43.7587 63.3699 43.7951C63.5152 43.8316 63.6103 43.855 63.6565 43.8641C63.938 43.9461 64.2195 44.0528 64.501 44.1816C64.7825 44.3104 65.028 44.4809 65.2362 44.6917C65.4444 44.9038 65.6102 45.1497 65.7336 45.4294C65.8557 45.7105 65.9264 45.9955 65.9444 46.2844C65.9624 46.5745 65.929 46.8608 65.8416 47.1471C65.7555 47.432 65.6115 47.6845 65.4123 47.9057C65.276 48.0618 65.1167 48.1971 64.9354 48.313C64.7529 48.4275 64.5678 48.5224 64.3763 48.5953C64.1591 48.6682 63.9355 48.7215 63.7092 48.7541C63.4817 48.7866 63.2555 48.8113 63.028 48.8295" fill="white"/>
</g>
<defs>
<clipPath id="clip0_80_152">
<rect width="65.9483" height="51" fill="white"/>
</clipPath>
</defs>
</svg>
