<svg width="66" height="51" viewBox="0 0 66 51" fill="none" xmlns="http://www.w3.org/2000/svg">
<path d="M49.5875 22.3602C49.0476 20.4787 47.9975 19.0772 46.1981 18.3277C44.3717 17.5665 42.6468 17.858 41.0003 18.8651C39.3358 14.9524 36.5287 12.8756 32.5635 12.5438C32.53 12.5725 32.4979 12.6011 32.4658 12.6323C32.2498 12.8379 31.9966 12.968 31.7344 13.0279C31.5198 13.1489 31.2987 13.2608 31.0751 13.3649C31.0635 13.4117 31.0519 13.4573 31.0365 13.5028C31.2177 13.456 31.4105 13.4326 31.6136 13.4195C31.737 13.4117 31.8591 13.4065 31.9825 13.4039C35.7163 13.3285 38.9939 15.7071 40.2265 19.3856C40.4939 20.1833 40.6172 20.2223 41.2805 19.7253C41.2972 19.7135 41.3126 19.6992 41.3293 19.6875C43.7149 17.9192 47.0181 18.7259 48.3279 21.4142C48.5348 21.8371 48.6672 22.3004 48.7957 22.7571C48.9859 23.4324 49.0605 23.4819 49.7443 23.262C49.8278 23.2346 49.9127 23.2125 50.0052 23.1891L50.2905 22.2535C50.0502 22.29 49.824 22.3251 49.5849 22.3615" fill="#89ADA1"/>
<path d="M64.4945 30.6099C64.1732 28.7466 63.0704 27.5651 61.2799 27.0914C60.6579 26.9275 59.9882 26.9496 59.262 26.878C58.4831 25.1045 57.1965 23.72 55.3713 22.8716L55.1747 23.7291C55.2274 23.7473 55.2685 23.7629 55.3071 23.7837C56.7466 24.5332 57.7723 25.6757 58.4407 27.1591C58.7659 27.88 58.7633 27.8813 59.5255 27.7993C59.627 27.7889 59.7286 27.7733 59.8314 27.7694C60.8802 27.7225 61.8159 28.0231 62.6012 28.7362C63.5999 29.6431 63.9611 31.1174 63.4971 32.3093C63.0305 33.5051 62.1822 34.0191 60.6617 34.0204C58.4908 34.023 56.3212 34.023 54.1516 34.023C53.9883 34.023 53.8238 34.0191 53.6606 34.0334C53.4228 34.0543 53.2531 34.2104 53.2853 34.4342C53.3058 34.5774 53.4704 34.7335 53.6079 34.8168C53.7171 34.8831 53.8868 34.8597 54.0282 34.8597C56.3418 34.8597 58.6553 34.8675 60.9689 34.8532C61.3532 34.8506 61.7504 34.8038 62.118 34.6932C63.722 34.2117 64.7991 32.3653 64.4958 30.6086" fill="#89ADA1"/>
<path d="M59.6412 13.0864C59.546 13.0539 59.4407 13.0448 59.3404 13.037C58.6052 12.9823 57.87 12.9355 57.1361 12.8782C56.7106 12.847 56.2852 12.804 55.87 12.7663C55.5153 11.8568 55.1798 10.9888 54.8379 10.1248C54.7313 9.85548 54.6297 9.58092 54.4858 9.33239C54.2917 8.99537 53.9613 9.00318 53.766 9.3402C53.6529 9.53538 53.5783 9.75398 53.4935 9.96348C53.113 10.8978 52.7352 11.832 52.3496 12.7819C51.2776 12.8639 50.2378 12.942 49.198 13.0226C49.0347 13.0357 48.8676 13.0357 48.7108 13.076C48.261 13.1918 48.171 13.5119 48.4923 13.845C48.635 13.9921 48.7982 14.1196 48.9563 14.251C49.716 14.8782 50.4769 15.5028 51.2506 16.1391C50.964 17.2087 50.6787 18.2653 50.401 19.3232C50.1658 20.221 50.2378 20.3134 51.1555 20.2483C51.1298 20.3446 51.0951 20.4721 51.0552 20.6205C50.8162 21.5001 50.3766 23.0993 50.3766 23.0993C50.3792 23.0993 50.383 23.0967 50.3856 23.0967C50.2841 23.4988 50.2108 23.8163 50.1234 24.1299C48.9486 28.3601 47.5322 32.5071 45.9641 36.602C45.8973 36.7764 45.8073 36.9508 45.7957 37.1303C45.788 37.2462 45.8806 37.4465 45.968 37.4739C46.0926 37.5116 46.2932 37.4661 46.3908 37.3776C46.5014 37.2761 46.5399 37.09 46.5991 36.9352C46.8548 36.2624 47.108 35.5884 47.3664 34.8988C48.6851 34.7673 49.9614 34.6398 51.2879 34.5084C51.2468 34.6997 51.2301 34.8194 51.1966 34.9313C50.9653 35.7042 50.7301 36.4758 50.4974 37.2488C50.4563 37.3867 50.3895 37.535 50.4087 37.6677C50.4254 37.7888 50.5257 37.9566 50.6247 37.9891C50.7236 38.0204 50.8997 37.9397 50.9833 37.8512C51.0745 37.7536 51.1067 37.5949 51.1529 37.4583C51.3277 36.9274 51.5013 36.3965 51.6683 35.8643C52.8714 32.0335 53.8572 28.1428 54.8431 24.2522C54.8585 24.1884 55.3225 22.1 55.6451 20.6205C55.7634 20.0792 55.8623 19.6198 55.915 19.37C56.3276 19.638 56.6824 19.871 57.041 20.0987C57.2633 20.2392 57.4895 20.437 57.762 20.2119C57.9998 20.0154 57.9086 19.7682 57.8404 19.5248C57.6245 18.7467 57.4137 17.9686 57.2042 17.1905C57.1078 16.8339 57.0217 16.4761 56.9304 16.1117C57.7775 15.4351 58.5949 14.7819 59.4124 14.1274C59.5563 14.0116 59.7119 13.9036 59.8327 13.7656C60.0666 13.4963 59.9805 13.2061 59.6424 13.0877M51.5732 33.7563C50.2661 33.8825 49.0309 34.0022 47.7378 34.1271C47.7584 33.9736 47.7558 33.8578 47.7905 33.755C48.0001 33.1291 48.2301 32.5097 48.4281 31.8812C48.5065 31.634 48.617 31.4935 48.8869 31.4752C49.9833 31.4037 51.0784 31.3217 52.2802 31.2358C52.0347 32.1102 51.811 32.9105 51.5732 33.7563ZM52.4742 30.4889C51.2622 30.5813 50.0913 30.6711 48.8381 30.7661C49.1067 29.9437 49.3484 29.2059 49.6028 28.4291C50.7635 28.3081 51.9113 28.1884 53.1259 28.0621C52.8971 28.9157 52.6902 29.6874 52.4755 30.4889M53.3123 27.2996C52.1786 27.4311 51.0527 27.5612 49.8291 27.7017C50.0746 26.8715 50.2956 26.1259 50.5193 25.3699C51.6465 25.2814 52.7352 25.1956 53.8919 25.1045C53.6901 25.8683 53.5089 26.5592 53.3123 27.3009M54.1837 23.8384V23.841C54.1451 23.9997 54.1092 24.1559 54.068 24.3263C52.9871 24.433 51.9164 24.5397 50.7391 24.6569C50.9511 23.8553 51.1427 23.1318 51.3406 22.3862C52.4151 22.3095 53.4511 22.2353 54.541 22.1559C54.5282 22.2912 54.2184 23.6926 54.1837 23.8384ZM54.7608 21.3921C53.6953 21.4832 52.6683 21.5704 51.5552 21.664C51.6388 21.2997 51.7159 20.9549 51.793 20.6205C51.865 20.3069 51.9357 20.0037 52.0115 19.6992C52.0334 19.6107 52.1156 19.5196 52.194 19.465C52.8148 19.0369 53.4408 18.6179 54.0899 18.1807C54.5153 18.4539 54.8739 18.6856 55.2827 18.9484C55.1644 19.5027 55.0449 20.0544 54.9241 20.6205C54.8701 20.8742 54.8148 21.1305 54.7595 21.3921M58.262 14.1807C57.6849 14.6427 57.0988 15.0942 56.523 15.5587C56.1091 15.8918 56.1091 15.9244 56.2646 16.4553C56.5243 17.3427 56.7788 18.2301 56.9471 19.1956C56.7158 19.0486 56.4831 18.9016 56.2518 18.7519C55.667 18.3733 55.0783 17.9998 54.4986 17.6107C54.203 17.413 53.9434 17.4286 53.6542 17.6329C53.0334 18.0688 52.3997 18.4865 51.7686 18.9094C51.6015 19.0213 51.4254 19.1215 51.1825 19.2711C51.2146 19.0603 51.2223 18.925 51.257 18.7988C51.464 18.0636 51.6504 17.3193 51.8997 16.5997C52.0681 16.1156 51.9987 15.7851 51.5797 15.4793C51.0347 15.0786 50.5244 14.6284 50.0013 14.1976C49.8496 14.0727 49.707 13.9361 49.473 13.7253C50.3149 13.6589 51.0385 13.6004 51.7635 13.547C51.9473 13.534 52.1311 13.5262 52.3149 13.5314C52.694 13.5418 52.9074 13.3675 53.0411 13.0031C53.3598 12.1326 53.7133 11.2751 54.095 10.3044C54.2274 10.5829 54.329 10.7702 54.4074 10.9654C54.6721 11.6147 54.9523 12.2601 55.1785 12.9238C55.3302 13.3688 55.5976 13.5275 56.0436 13.5405C56.8405 13.5627 57.6348 13.6264 58.4304 13.6759C58.5049 13.6798 58.5795 13.6967 58.7697 13.7227C58.5486 13.9231 58.4124 14.0623 58.2607 14.182" fill="#BE968E"/>
<path d="M10.5254 21.5456C10.6912 20.9354 10.8146 20.3485 11.0113 19.7864C12.1449 16.5542 15.3839 14.1053 19.0098 14.3928C21.4609 14.588 23.394 15.7474 24.8901 17.6927C24.9531 17.7734 25.0084 17.8619 25.0559 17.953C25.1575 18.1442 25.1163 18.3199 24.9582 18.4552C24.7706 18.6166 24.5714 18.5828 24.4081 18.4188C24.2783 18.2887 24.1806 18.126 24.0649 17.9816C22.6228 16.1872 20.7488 15.2282 18.4764 15.1827C16.5831 15.1449 14.9778 15.9465 13.6218 17.2503C12.4097 18.4162 11.6796 19.8475 11.4534 21.5339C11.3378 22.3979 11.3326 22.3979 10.4843 22.4357C7.74658 22.558 5.1708 24.7427 4.49087 27.5208C4.077 29.2137 4.19911 30.8506 4.99472 32.4147C5.11554 32.6528 5.26592 32.8779 5.41501 33.1005C5.83788 33.7315 6.33916 34.0517 7.18361 34.049C19.7746 34.0113 32.3655 34.0191 44.9565 34.0178C45.1197 34.0178 45.3074 33.9814 45.4398 34.049C45.5786 34.1206 45.7187 34.2846 45.7585 34.4342C45.8125 34.6359 45.666 34.7894 45.4578 34.8259C45.2971 34.8532 45.1313 34.8558 44.968 34.8558C37.5158 34.8584 30.0635 34.8597 22.6113 34.8597C17.3286 34.8597 12.0472 34.848 6.7646 34.8688C6.13736 34.8714 5.67079 34.6801 5.2415 34.239C4.29807 33.2735 3.77881 32.0972 3.53074 30.7921C2.92407 27.5924 4.37519 24.312 7.11934 22.6191C8.06405 22.0362 8.95735 21.7512 10.5241 21.5443" fill="#89ADA1"/>
<path d="M5.95484 29.4596C6.08722 27.2944 6.93939 25.6106 8.88407 24.6022C9.01003 24.5371 9.15142 24.4525 9.28124 24.4564C9.42133 24.4616 9.55886 24.5618 9.69768 24.6204C9.63598 24.757 9.59357 24.9093 9.50488 25.0238C9.44961 25.0953 9.32237 25.1057 9.22982 25.15C7.57177 25.9372 6.49724 27.7915 6.62449 29.6496C6.63606 29.8149 6.69389 29.9892 6.65662 30.1415C6.6232 30.2781 6.48953 30.39 6.40084 30.5123C6.28388 30.4199 6.10136 30.3484 6.06409 30.2299C5.98569 29.9788 5.9844 29.7029 5.95355 29.4596" fill="#89ADA1"/>
<path d="M17.3234 17.223C17.1602 17.3791 17.0651 17.5119 16.9365 17.5821C16.7592 17.6797 16.5484 17.7136 16.3646 17.7994C14.9687 18.4566 14.0471 19.5327 13.6037 21.0252C13.5626 21.1631 13.5574 21.3244 13.4816 21.4363C13.4122 21.5378 13.231 21.668 13.1641 21.638C13.0433 21.5834 12.9251 21.4311 12.8904 21.2971C12.8582 21.1722 12.9263 21.0147 12.9688 20.8768C13.5317 19.0707 14.6757 17.7968 16.4057 17.0721C16.5715 17.0031 16.7617 16.9497 16.9365 16.9575C17.0471 16.9628 17.1512 17.0968 17.3234 17.2204" fill="#89ADA1"/>
<path d="M38.2445 19.3218C38.1044 19.1839 37.9849 19.1058 37.9206 18.9952C37.7574 18.7102 37.634 18.4019 37.4656 18.1195C37.0363 17.3986 36.4515 16.8326 35.7317 16.4084C35.6083 16.3355 35.4618 16.2848 35.3731 16.182C35.3076 16.1052 35.2639 15.9256 35.3089 15.8554C35.3731 15.7552 35.5197 15.6836 35.643 15.6589C35.7253 15.6433 35.832 15.7213 35.9207 15.7708C37.089 16.4227 37.9142 17.3908 38.4579 18.6127C38.5054 18.7207 38.5466 18.8625 38.5157 18.9666C38.481 19.0824 38.3628 19.1735 38.2432 19.3205" fill="#89ADA1"/>
<path d="M44.549 19.8228C45.1942 19.8033 45.7418 20.0558 46.2354 20.4461C46.3433 20.532 46.4654 20.6465 46.4963 20.7688C46.5245 20.882 46.4693 21.0551 46.3883 21.1423C46.333 21.2034 46.1672 21.1826 46.058 21.1618C45.9873 21.1488 45.9243 21.072 45.8652 21.0174C45.3819 20.571 44.8151 20.4058 44.1724 20.5008C43.9231 20.5385 43.6262 20.588 43.6017 20.2418C43.5799 19.9282 43.8717 19.8762 44.1236 19.8489C44.265 19.8332 44.4076 19.8306 44.5503 19.8228" fill="#89ADA1"/>
<path d="M49.5373 6.91333C49.5977 6.96538 49.7301 7.03435 49.7995 7.14495C50.1761 7.73701 50.536 8.33947 50.9023 8.93803C51.027 9.14232 51.0347 9.3349 50.8072 9.46893C50.6015 9.59124 50.4473 9.47934 50.3419 9.31018C49.9602 8.69731 49.5759 8.08573 49.2173 7.45724C49.0566 7.17618 49.1993 6.91203 49.536 6.91333" fill="#89ADA1"/>
<path d="M54.6251 6.10412C54.6251 6.49579 54.6277 6.88876 54.6238 7.28042C54.6213 7.48211 54.5595 7.66428 54.3267 7.67469C54.0591 7.6877 53.982 7.49512 53.9807 7.26611C53.9768 6.48147 53.9781 5.69814 53.9755 4.9135C53.9755 4.7001 54.0501 4.54005 54.2765 4.52574C54.5467 4.50882 54.62 4.6923 54.62 4.92782C54.62 5.31948 54.62 5.71245 54.62 6.10412H54.6251Z" fill="#89ADA1"/>
<path d="M62.8146 15.0317C62.4252 15.0317 62.037 15.0356 61.6475 15.0304C61.4406 15.0278 61.2671 14.9341 61.2761 14.709C61.2851 14.5021 61.4316 14.3798 61.6514 14.3798C62.4085 14.3798 63.1668 14.3759 63.9238 14.3772C64.1372 14.3772 64.2889 14.4826 64.2902 14.7051C64.2914 14.9367 64.1269 15.0239 63.9187 15.0265C63.5498 15.0304 63.1822 15.0265 62.8133 15.0265V15.0304L62.8146 15.0317Z" fill="#89ADA1"/>
<path d="M57.9613 9.53142C57.8623 9.37397 57.7389 9.24776 57.7055 9.10072C57.6836 9.00833 57.7877 8.87691 57.8507 8.77411C58.1605 8.26794 58.4767 7.76437 58.7916 7.26079C58.8353 7.19183 58.8751 7.09033 58.9381 7.06952C59.0743 7.02527 59.2723 6.95891 59.3545 7.02137C59.4394 7.08643 59.4869 7.33366 59.4317 7.43386C59.1245 7.98948 58.78 8.52428 58.4484 9.06428C58.3944 9.15147 58.3494 9.24906 58.28 9.31932C58.2132 9.38829 58.1181 9.42993 57.9625 9.53012" fill="#89ADA1"/>
<path d="M45.8497 14.3642C46.1955 14.3642 46.5412 14.3642 46.8857 14.3642C47.0875 14.3642 47.2662 14.4306 47.2803 14.6583C47.297 14.9185 47.1222 15.0161 46.8883 15.0161C46.1569 15.0187 45.4243 15.02 44.693 15.0187C44.4937 15.0187 44.3138 14.9576 44.2971 14.7273C44.2778 14.4592 44.4642 14.3759 44.6917 14.372C45.0773 14.3668 45.4642 14.3707 45.8497 14.3707V14.3629V14.3642Z" fill="#89ADA1"/>
<path d="M48.3754 11.24C48.3767 11.5354 48.1389 11.6928 47.8959 11.5822C47.6556 11.4729 47.4332 11.3207 47.2044 11.1853C46.905 11.0084 46.5913 10.8496 46.3176 10.6388C46.2237 10.5673 46.1569 10.3278 46.2058 10.2329C46.2559 10.1353 46.5065 10.039 46.5952 10.0858C47.1556 10.3799 47.698 10.7091 48.2391 11.0396C48.3137 11.0852 48.3484 11.1997 48.3754 11.2413" fill="#89ADA1"/>
<path d="M62.5383 10.4358C62.492 10.4931 62.4342 10.6115 62.3403 10.6713C61.8583 10.9771 61.3686 11.2699 60.8789 11.5653C60.6926 11.6772 60.5165 11.6577 60.4085 11.4625C60.3044 11.2751 60.3545 11.1033 60.546 10.9914C61.055 10.6922 61.5601 10.3812 62.0781 10.1001C62.312 9.97259 62.5575 10.1417 62.537 10.4371" fill="#89ADA1"/>
<path d="M19.1299 17.1501C19.0334 17.2269 18.9215 17.3843 18.7813 17.4142C18.5665 17.4611 18.3877 17.3414 18.3658 17.0915C18.3465 16.8703 18.4765 16.748 18.6836 16.7311C18.9112 16.7129 19.0656 16.8183 19.1299 17.1501Z" fill="#89ADA1"/>
<path d="M34.6038 15.5457C34.3736 15.6927 34.2398 15.8411 34.106 15.8398C34.0095 15.8398 33.8513 15.6511 33.832 15.5288C33.7973 15.3167 33.9606 15.1696 34.1652 15.2087C34.2899 15.2321 34.3941 15.3778 34.6025 15.5457" fill="#89ADA1"/>
<path d="M36.9669 8.39156C35.7497 8.3226 34.5608 9.05909 33.7305 9.9309C33.7022 9.89577 33.6688 9.86454 33.6302 9.83722C33.6289 9.83722 33.6264 9.83592 33.6251 9.83461C34.2433 8.89253 35.1944 8.02332 36.3037 7.85156C36.3795 7.83984 36.3654 7.72013 36.2895 7.73184C35.1379 7.91011 34.1598 8.80405 33.521 9.77866C33.3037 9.69148 33.048 9.76305 32.9079 9.96474C32.8063 10.1092 32.7883 10.2874 32.8436 10.4423C32.7395 10.5204 32.6264 10.6114 32.5043 10.7155C32.9953 9.41822 33.706 6.88085 32.7613 4.84183C32.1919 3.61348 31.7536 2.86919 31.431 2.28364C31.3501 2.1366 31.2768 1.99997 31.21 1.86855C31.21 1.86855 31.21 1.86725 31.21 1.86595C31.1894 1.82561 31.1701 1.78527 31.1508 1.74623C31.147 1.73713 31.1418 1.72802 31.138 1.71891C31.1226 1.68768 31.1084 1.65515 31.0943 1.62392C31.0891 1.61221 31.084 1.6005 31.0789 1.58879C31.066 1.56016 31.0532 1.53023 31.0416 1.5016C31.0364 1.48859 31.0313 1.47688 31.0262 1.46387C31.0146 1.43524 31.003 1.40531 30.9915 1.37669C30.9863 1.36498 30.9825 1.35327 30.9773 1.34025C30.9658 1.30902 30.9542 1.27649 30.9426 1.24396C30.94 1.23485 30.9362 1.22575 30.9336 1.21664C30.9053 1.13336 30.8809 1.04878 30.8578 0.960297C30.8552 0.948586 30.8526 0.938177 30.8501 0.926466C30.8424 0.893935 30.8346 0.861405 30.8269 0.827573C30.8231 0.811958 30.8205 0.796344 30.8167 0.779428C30.8102 0.7495 30.8051 0.719572 30.7999 0.689644C30.7961 0.671427 30.7935 0.65321 30.7909 0.634993C30.7858 0.605065 30.7807 0.575136 30.7768 0.543907C30.7742 0.524389 30.7717 0.506172 30.7691 0.485352C30.7652 0.454123 30.7614 0.421593 30.7575 0.389062C30.755 0.369544 30.7537 0.350025 30.7511 0.330507C30.7472 0.295374 30.7447 0.257639 30.7408 0.221205C30.7395 0.202988 30.737 0.186072 30.7357 0.167855C30.7318 0.111902 30.728 0.0559498 30.7254 -0.00390625C30.7254 -0.00390625 29.3964 1.43004 27.4491 2.90952C25.5006 4.38901 24.7037 8.29007 27.4491 10.0376C27.4491 10.0376 24.6356 8.80665 22.4891 10.3512C20.4686 11.8047 20.2308 13.2646 19.4776 13.0408C19.4776 13.0408 19.4776 13.0408 19.4789 13.0421C19.4789 13.0421 19.4789 13.0421 19.4802 13.0434C19.4815 13.0447 19.484 13.046 19.4853 13.0486C19.7462 13.2776 25.3296 18.0974 30.1213 13.9699C29.8591 14.5281 29.6123 15.1592 29.399 15.8697C29.399 15.8697 32.359 13.9998 33.2896 10.7845C33.467 10.7988 33.6456 10.722 33.7562 10.5646C33.8693 10.4019 33.8783 10.1951 33.7973 10.0285C34.6006 9.1749 35.7715 8.43971 36.9579 8.50737C37.035 8.51127 37.044 8.39156 36.9682 8.38766" fill="#BE968E"/>
<path d="M56.2646 16.4553C56.5243 17.3427 56.7788 18.2302 56.9471 19.1957C56.7158 19.0486 56.4831 18.9016 56.2518 18.752C55.667 18.3733 55.0783 17.9999 54.4986 17.6108C54.203 17.413 53.9433 17.4286 53.6542 17.6329C53.0333 18.0688 52.3997 18.4865 51.7686 18.9094C51.6015 19.0213 51.4254 19.1215 51.1825 19.2711C51.2146 19.0604 51.2223 18.925 51.257 18.7988C51.464 18.0636 51.6503 17.3206 51.8997 16.5997C52.0681 16.1157 51.9987 15.7852 51.5797 15.4794C51.0347 15.0786 50.5244 14.6284 50.0013 14.1977C49.8496 14.0728 49.7069 13.9361 49.473 13.7254C50.3149 13.659 51.0385 13.6004 51.7635 13.5471C51.9473 13.5328 52.1323 13.5263 52.3149 13.5315C52.694 13.5419 52.9074 13.3675 53.0411 13.0032C53.3598 12.1327 53.7133 11.2752 54.095 10.3044C54.2274 10.5829 54.3289 10.7703 54.4086 10.9655C54.6734 11.6148 54.9536 12.2602 55.1798 12.9238C55.3315 13.3688 55.5988 13.5289 56.0448 13.5406C56.8405 13.5627 57.6361 13.6265 58.4317 13.6759C58.5062 13.6798 58.5808 13.6967 58.771 13.7227C58.5499 13.9231 58.4137 14.0624 58.262 14.1834C57.6849 14.6453 57.0988 15.0968 56.523 15.5614C56.1091 15.8945 56.1091 15.927 56.2646 16.4579" fill="#E2B78C"/>
<path d="M5.13355 48.6787C4.76981 48.762 4.38807 48.7932 3.98962 48.775C3.75312 48.7568 3.51791 48.7178 3.28141 48.6579C3.04491 48.598 2.85469 48.4757 2.70945 48.2923C2.63618 48.2012 2.57963 48.101 2.5385 47.9956C2.49737 47.8902 2.46395 47.7861 2.43696 47.6846C2.40097 47.5193 2.38041 47.3515 2.37526 47.181C2.37012 47.0106 2.36884 46.8388 2.36884 46.6631C2.36884 46.2676 2.39326 45.872 2.44339 45.4764C2.49351 45.0808 2.55007 44.6879 2.61433 44.2975C2.67731 43.9071 2.73644 43.5129 2.79171 43.1186C2.84569 42.723 2.88296 42.3275 2.90096 41.9332C2.47423 41.9879 2.05136 42.0165 1.63364 42.0165C1.50639 42.0074 1.37657 41.9983 1.24547 41.9892C1.11437 41.98 0.984552 41.9527 0.857306 41.9059C0.73006 41.8603 0.61181 41.7914 0.502559 41.699C0.393307 41.6079 0.307191 41.5012 0.24421 41.3815C0.190227 41.28 0.149097 41.1772 0.122105 41.0705C0.0951134 40.9651 0.0719777 40.8571 0.0539833 40.7465C0.0179944 40.563 0 40.3769 0 40.1883V39.6157C0 39.4323 0.00257063 39.2436 0.00642658 39.0497C0.0102825 38.8571 0.0308476 38.6684 0.0681218 38.4837C0.0951134 38.3366 0.136244 38.1935 0.190227 38.0556C0.24421 37.9176 0.321329 37.7979 0.421584 37.6964C0.521838 37.5858 0.641373 37.496 0.782757 37.4271C0.924142 37.3581 1.06681 37.31 1.21205 37.2826C1.50253 37.228 1.80073 37.1981 2.10406 37.1929C2.40868 37.1877 2.71073 37.1994 3.01021 37.2267C3.16445 37.2449 3.32126 37.2657 3.48064 37.2891C3.63873 37.3126 3.77754 37.375 3.89579 37.4752C4.01404 37.5767 4.09502 37.6977 4.14129 37.8409C4.18627 37.984 4.21841 38.1323 4.2364 38.2885C4.37265 38.2794 4.59243 38.2664 4.89705 38.2468C5.20167 38.2286 5.51915 38.2143 5.85076 38.2052C6.18237 38.1961 6.49856 38.1987 6.79804 38.2117C7.09752 38.2247 7.31088 38.256 7.43812 38.3015C7.54738 38.3379 7.64635 38.3939 7.7376 38.4668C7.82886 38.5409 7.90984 38.6281 7.9831 38.7283C8.04608 38.8298 8.09235 38.9352 8.11934 39.0458C8.14633 39.1564 8.16947 39.2709 8.18746 39.3906C8.21445 39.63 8.22345 39.8643 8.21445 40.0946C8.20546 40.3249 8.17847 40.5539 8.13219 40.7842C8.1142 40.8675 8.09364 40.9482 8.0705 41.0249C8.04736 41.103 8.0178 41.1785 7.98181 41.2527C7.88156 41.4179 7.74531 41.5467 7.57308 41.6391C7.46383 41.6938 7.35072 41.7315 7.23247 41.7497C7.11422 41.7679 6.99598 41.7823 6.87773 41.7914C6.64123 41.8096 6.40344 41.8148 6.1618 41.8057C5.92145 41.7966 5.68238 41.7914 5.44717 41.7914C5.45617 41.9202 5.46516 42.0464 5.47416 42.1713C5.48316 42.2949 5.4973 42.4212 5.51529 42.55C5.58855 43.2214 5.66696 43.8902 5.75436 44.5565C5.84048 45.2227 5.90603 45.8928 5.9523 46.5629C5.97029 46.7282 5.98186 46.8934 5.987 47.06C5.99086 47.2253 5.98957 47.3905 5.98058 47.5571C5.98058 47.7601 5.93945 47.9435 5.85847 48.1088C5.78521 48.2467 5.68367 48.3638 5.55128 48.4601C5.41889 48.5564 5.28136 48.628 5.13612 48.6735" fill="#A08268"/>
<path d="M11.5511 41.0783C11.4418 41.1798 11.3172 41.2696 11.1758 41.3476C11.0344 41.4257 10.8917 41.4647 10.7465 41.4647C10.6552 41.4647 10.5665 41.4491 10.4804 41.4166C10.3943 41.3841 10.3095 41.3502 10.2285 41.3125C10.1835 41.3034 10.1102 41.2696 10.01 41.2097C9.90973 41.1498 9.84161 41.1056 9.80562 41.0783C9.66038 40.9677 9.519 40.8467 9.38275 40.7126C9.24651 40.5799 9.13212 40.4303 9.04215 40.2637C8.97916 40.1531 8.92904 40.036 8.89176 39.9124C8.85577 39.7888 8.84678 39.6626 8.86477 39.5337C8.88277 39.3958 8.93289 39.2839 9.01515 39.1954C9.09741 39.1082 9.19638 39.0484 9.31463 39.0158C9.43288 38.9833 9.55756 38.9768 9.68866 38.995C9.81976 39.0132 9.94572 39.0549 10.064 39.1186C10.1359 39.1642 10.2028 39.2136 10.2619 39.2631C10.321 39.3138 10.3866 39.3672 10.4598 39.4218C10.5331 39.293 10.6051 39.1785 10.6784 39.077C10.7606 38.9664 10.8557 38.8753 10.965 38.8011C11.0742 38.7283 11.1873 38.6775 11.3056 38.6489C11.4238 38.6216 11.5421 38.619 11.6603 38.6424C11.7786 38.6658 11.8878 38.7231 11.9868 38.8155C12.0601 38.8805 12.1166 38.9586 12.1578 39.0497C12.1989 39.1421 12.2233 39.2384 12.2323 39.3385C12.2593 39.6508 12.2092 39.9657 12.0819 40.2832C11.9547 40.6007 11.7773 40.8649 11.5511 41.077M11.8788 48.3612C11.6886 48.4445 11.4907 48.5017 11.2863 48.5343C11.0819 48.5668 10.875 48.5876 10.6668 48.5967C10.4766 48.5967 10.285 48.5811 10.0948 48.5486C9.90459 48.516 9.73107 48.4406 9.57684 48.3209C9.44959 48.2298 9.35705 48.1075 9.29792 47.9552C9.2388 47.803 9.1951 47.6494 9.16811 47.4933C9.12312 47.2448 9.09099 46.9923 9.07299 46.7347C9.055 46.477 9.046 46.2194 9.046 45.9618V45.9474C9.00102 45.561 8.97274 45.1732 8.96374 44.7815C8.95474 44.3912 8.97788 43.9982 9.03186 43.6026C9.04986 43.4465 9.07556 43.2903 9.10641 43.1342C9.13854 42.9781 9.20795 42.844 9.3172 42.7347C9.40846 42.6436 9.53956 42.5669 9.71179 42.507C9.88403 42.4472 10.0678 42.4055 10.2632 42.3834C10.4586 42.3613 10.6514 42.3509 10.8429 42.3561C11.0331 42.3613 11.1925 42.3769 11.3197 42.4042C11.5459 42.4511 11.7554 42.533 11.947 42.6528C12.1372 42.7907 12.2644 42.9885 12.3287 43.2461C12.3737 43.4387 12.3878 43.6326 12.3698 43.8252C12.3518 44.0177 12.3377 44.2168 12.3287 44.4185C12.3197 44.7503 12.3107 45.0808 12.3017 45.4113C12.2927 45.7418 12.3068 46.0685 12.3428 46.3912C12.3698 46.6306 12.3968 46.8713 12.4251 47.1159C12.4521 47.3593 12.4302 47.6013 12.357 47.8407C12.321 47.9513 12.2593 48.0541 12.1732 48.1517C12.0871 48.248 11.9894 48.3196 11.8801 48.3651" fill="#A08268"/>
<path d="M15.5022 48.637C15.3209 48.6644 15.132 48.68 14.9366 48.6852C14.7413 48.6904 14.5485 48.6735 14.357 48.637C14.2477 48.6188 14.1372 48.5863 14.0228 48.5407C13.9084 48.4952 13.8158 48.4301 13.7439 48.3482C13.6436 48.2467 13.5691 48.123 13.5189 47.976C13.4688 47.829 13.4354 47.6819 13.4174 47.5349C13.4084 47.4516 13.4084 47.2929 13.4174 47.0586C13.4264 46.8244 13.438 46.5759 13.4521 46.3144C13.4662 46.0528 13.4791 45.8069 13.4932 45.5766C13.5074 45.3462 13.5138 45.1901 13.5138 45.1081C13.5318 44.667 13.5408 44.2324 13.5408 43.8043V42.5005C13.5408 42.2793 13.5588 42.0542 13.5948 41.8251C13.6308 41.5948 13.722 41.397 13.8673 41.2318C13.9765 41.1121 14.1127 41.021 14.276 40.9559C14.4392 40.8922 14.6115 40.8518 14.794 40.8388C14.9752 40.8245 15.1551 40.8362 15.3325 40.8726C15.5099 40.9091 15.6667 40.9689 15.8029 41.0522C15.9122 41.116 16.0073 41.1954 16.0896 41.2864C16.1718 41.3788 16.2489 41.4751 16.3209 41.5766C16.6204 41.3099 16.9661 41.1212 17.3569 41.0106C17.7116 40.9091 18.0741 40.8779 18.4468 40.9143C18.8196 40.9507 19.173 41.0522 19.5098 41.2175C19.7733 41.3463 20.0111 41.5259 20.2257 41.7549C20.4391 41.9852 20.6049 42.2376 20.7231 42.5135C20.8414 42.8076 20.9339 43.1068 21.002 43.41C21.0702 43.7132 21.1267 44.0216 21.173 44.3339C21.218 44.6371 21.2501 44.9403 21.2681 45.2447C21.2861 45.5479 21.2861 45.8511 21.2681 46.1556C21.2501 46.6436 21.191 47.0977 21.0907 47.5206C21.0457 47.6676 20.9905 47.8147 20.9275 47.9617C20.8645 48.1087 20.7771 48.2324 20.6691 48.3338C20.6332 48.3612 20.5779 48.3885 20.5059 48.4171C20.4326 48.4444 20.3542 48.4692 20.2681 48.4926C20.182 48.516 20.0997 48.5355 20.0226 48.5551C19.9455 48.5733 19.8838 48.5824 19.8388 48.5824C19.6293 48.6006 19.4121 48.5941 19.1846 48.5616C18.9571 48.529 18.7579 48.4484 18.5856 48.3195C18.4224 48.1907 18.3042 48.0294 18.2309 47.8368C18.1756 47.6988 18.1396 47.5518 18.1216 47.3957C18.1037 47.2395 18.0947 47.0834 18.0947 46.9272C18.0947 46.5785 18.0985 46.2285 18.1088 45.8784C18.1178 45.5297 18.1127 45.1797 18.0947 44.8297C18.0857 44.6735 18.0741 44.5148 18.06 44.3534C18.0458 44.1921 18.0163 44.0346 17.9713 43.8772C17.9533 43.7757 17.9211 43.6768 17.8762 43.5805C17.8312 43.4842 17.772 43.3983 17.6988 43.3254C17.6345 43.2617 17.5535 43.2292 17.4533 43.2292C17.344 43.2292 17.2489 43.2643 17.1667 43.3333C17.0857 43.4022 17.015 43.492 16.9559 43.6026C16.8967 43.7132 16.8492 43.8303 16.8132 43.9539C16.7772 44.0776 16.7489 44.1947 16.7309 44.3053C16.6307 44.8023 16.5831 45.3007 16.5883 45.8017C16.5934 46.3026 16.5857 46.8023 16.5677 47.2981C16.5587 47.4542 16.5381 47.6182 16.506 47.7873C16.4739 47.9578 16.4083 48.1074 16.3081 48.2363C16.2168 48.356 16.0986 48.4471 15.9533 48.5121C15.8081 48.5759 15.6577 48.6175 15.5035 48.6357" fill="#A08268"/>
<path d="M27.4517 50.5954C26.9967 50.8062 26.507 50.935 25.98 50.9818C25.453 51.0274 24.944 50.987 24.4543 50.8582C24.2641 50.8127 24.0752 50.7502 23.8888 50.6721C23.7024 50.5941 23.5225 50.5043 23.3503 50.4028C23.0328 50.2011 22.8374 49.92 22.7642 49.5609C22.7102 49.2668 22.7384 48.9675 22.8528 48.6644C22.9659 48.3612 23.1407 48.1179 23.3772 47.9331C23.6587 47.7119 23.9775 47.639 24.331 47.7119C24.5585 47.7574 24.7757 47.8342 24.9852 47.9396C25.1934 48.045 25.4158 48.0983 25.6523 48.0983C25.8425 48.0983 26.034 48.0437 26.2242 47.9331C26.4144 47.8225 26.5648 47.6898 26.6741 47.5323C26.8193 47.3215 26.9209 47.0912 26.98 46.8427C27.0391 46.5941 27.0828 46.3456 27.1098 46.0984C26.9003 46.3469 26.6445 46.5564 26.3399 46.7255C26.0353 46.896 25.7204 47.004 25.3926 47.0495C25.1651 47.0678 24.9376 47.0548 24.7114 47.0079C24.4839 46.9624 24.2667 46.8882 24.0572 46.7867C23.7024 46.6306 23.3824 46.4028 23.097 46.1036C22.8104 45.8056 22.5906 45.4764 22.4364 45.1172C22.2912 44.7776 22.1935 44.425 22.1433 44.062C22.0932 43.6989 22.0637 43.3333 22.0547 42.965C22.0547 42.7074 22.0495 42.4471 22.0405 42.1856C22.0315 41.924 22.0495 41.6638 22.0945 41.4062C22.1125 41.2956 22.1421 41.1876 22.1832 41.0822C22.2243 40.9768 22.2809 40.8818 22.3541 40.7998C22.4724 40.6801 22.6125 40.5929 22.7757 40.5382C22.939 40.4836 23.0983 40.4459 23.2526 40.4276C23.3888 40.4185 23.5251 40.4094 23.6613 40.4003C23.7975 40.3912 23.9338 40.386 24.07 40.386C24.1973 40.386 24.3284 40.3951 24.4646 40.4133C24.6009 40.4315 24.7191 40.4771 24.8194 40.5513C24.9016 40.615 24.9646 40.7009 25.0096 40.8063C25.0546 40.9117 25.0829 41.0158 25.0919 41.116C25.1189 41.5025 25.1073 41.8889 25.0584 42.2741C25.0083 42.6605 24.9929 43.047 25.0109 43.4322C25.0289 43.6156 25.061 43.7978 25.106 43.9774C25.151 44.1569 25.2242 44.3196 25.3245 44.4666C25.4697 44.6592 25.6587 44.7386 25.89 44.7008C26.1214 44.6644 26.3142 44.5486 26.4684 44.356C26.6497 44.1166 26.7653 43.8368 26.8155 43.5141C26.8656 43.1927 26.8862 42.8752 26.8772 42.5629C26.8772 42.4523 26.8682 42.2897 26.8502 42.0737C26.8322 41.8577 26.8168 41.6326 26.8026 41.3984C26.7885 41.1641 26.7872 40.9416 26.7962 40.7295C26.8052 40.5187 26.8322 40.3665 26.8784 40.2741C26.8784 40.1908 26.9054 40.118 26.9607 40.0529C27.0147 39.9891 27.0828 39.9358 27.1651 39.8941C27.2473 39.8525 27.336 39.8187 27.4311 39.7913C27.5262 39.764 27.6149 39.7458 27.6972 39.7367C27.9697 39.6912 28.246 39.6768 28.5288 39.6951C28.638 39.7042 28.7473 39.7185 28.8553 39.7367C28.9645 39.7549 29.0686 39.7913 29.1689 39.8473C29.3051 39.9215 29.4144 40.0516 29.4954 40.2403C29.5776 40.4289 29.6432 40.6358 29.6933 40.8609C29.7434 41.0861 29.7768 41.3112 29.7961 41.5363C29.8141 41.7614 29.8282 41.9475 29.8372 42.0945C29.8552 42.4992 29.8591 42.8987 29.8514 43.2942C29.8424 43.6898 29.8372 44.0893 29.8372 44.494C29.8372 45.1927 29.8013 45.8915 29.728 46.5902C29.6547 47.289 29.4966 47.9656 29.2511 48.6175C29.0969 49.0404 28.8578 49.4243 28.5352 49.7691C28.2126 50.1139 27.8514 50.3872 27.4517 50.5902" fill="#A08268"/>
<path d="M34.2356 48.8582C34.0351 48.9311 33.8269 48.9662 33.6084 48.9623C33.3899 48.9571 33.1765 48.9363 32.9683 48.8999C32.8141 48.8725 32.6611 48.8218 32.512 48.7476C32.3616 48.6735 32.2421 48.5733 32.1509 48.4444C32.1149 48.3898 32.0827 48.2948 32.0557 48.1621C32.0288 48.0294 32.0082 47.8862 31.994 47.734C31.9799 47.5817 31.9683 47.4373 31.9593 47.2994C31.9503 47.1614 31.9452 47.056 31.9452 46.9819C31.9362 46.4484 31.9478 45.9149 31.9799 45.3814C32.012 44.8479 32.0596 44.3196 32.1226 43.7952C31.9773 43.8043 31.8321 43.8095 31.6869 43.8095C31.5416 43.8095 31.3964 43.7913 31.2511 43.7548C31.0416 43.7093 30.8835 43.6078 30.7743 43.4517C30.7113 43.3606 30.6676 43.2357 30.6445 43.0795C30.6213 42.9234 30.6149 42.7607 30.6239 42.5903C30.6329 42.4198 30.6509 42.2519 30.6779 42.0867C30.7049 41.9214 30.737 41.7874 30.773 41.6872C30.818 41.5493 30.8938 41.4231 30.9979 41.3073C31.102 41.1927 31.2177 41.1069 31.345 41.0522C31.4902 40.9976 31.6419 40.9715 31.8012 40.9767C31.9593 40.9819 32.1162 40.9924 32.2717 41.0119C32.3077 40.4419 32.4118 39.872 32.5853 39.3008C32.6303 39.1537 32.6945 39.0158 32.7755 38.887C32.8578 38.7582 32.9619 38.6567 33.0891 38.5838C33.1984 38.5291 33.3385 38.4875 33.512 38.4602C33.6842 38.4329 33.8616 38.4211 34.0441 38.425C34.2254 38.4303 34.4002 38.4511 34.5685 38.4875C34.7369 38.5239 34.8757 38.5708 34.9837 38.6254C35.1559 38.7269 35.2793 38.874 35.3513 39.0666C35.3873 39.168 35.4078 39.2786 35.413 39.3971C35.4181 39.5168 35.4104 39.6313 35.3924 39.7419C35.3744 39.9436 35.3487 40.144 35.3179 40.3417C35.2857 40.5395 35.2562 40.7399 35.2292 40.9416C35.4194 40.9416 35.6084 40.9468 35.7947 40.9546C35.9811 40.9637 36.1649 41.0015 36.3461 41.0652C36.5004 41.1199 36.6392 41.2032 36.7613 41.3138C36.8834 41.4244 36.9682 41.5532 37.0132 41.7002C37.0582 41.8473 37.0865 41.9995 37.0955 42.1556C37.1045 42.3118 37.1006 42.4679 37.0826 42.6241C37.0646 42.7438 37.0466 42.8609 37.0286 42.9754C37.0106 43.0912 36.9656 43.1992 36.8924 43.2994C36.8474 43.3918 36.7767 43.4673 36.6816 43.5271C36.5865 43.587 36.4888 43.626 36.3885 43.6442C36.17 43.6898 35.9477 43.7106 35.7215 43.7067C35.494 43.7028 35.2677 43.6911 35.0402 43.6716C35.0223 44.2142 35.0145 44.7542 35.0197 45.2929C35.0235 45.8303 35.0351 46.3716 35.0544 46.9142C35.0634 47.1354 35.066 47.3579 35.0608 47.583C35.0557 47.8081 35.0171 48.0228 34.9451 48.2245C34.8822 48.3807 34.7858 48.5147 34.6585 48.624C34.5313 48.7346 34.3899 48.8127 34.2356 48.8582Z" fill="#A08268"/>
<path d="M43.8009 48.8022C43.5644 48.8113 43.3241 48.7905 43.0786 48.7398C42.8331 48.689 42.6236 48.5758 42.4514 48.4014C42.3421 48.3 42.2586 48.1737 42.1994 48.0215C42.1403 47.8692 42.0928 47.7157 42.0568 47.5596C41.8575 47.7157 41.6455 47.8588 41.4231 47.9877C41.2007 48.1165 40.9707 48.218 40.7355 48.2908C40.526 48.3546 40.3062 48.3871 40.0748 48.3871C39.8435 48.3871 39.6224 48.3507 39.4142 48.2765C39.1777 48.1933 38.9617 48.0696 38.7676 47.9044C38.5723 47.7391 38.4103 47.5504 38.2844 47.3384C38.0659 46.9987 37.9103 46.6253 37.8139 46.2206C37.7188 45.8159 37.6713 45.4073 37.6713 44.9936C37.6713 44.5798 37.7214 44.1725 37.8216 43.773C37.9219 43.3735 38.0761 42.9988 38.2844 42.6488C38.4206 42.4276 38.5684 42.2194 38.7278 42.0216C38.8859 41.8238 39.071 41.6468 39.2792 41.4907C39.4334 41.371 39.5967 41.2656 39.7702 41.1732C39.9424 41.0821 40.1198 41.0027 40.3023 40.939C40.738 40.7828 41.1879 40.6904 41.6506 40.6631C42.1133 40.6358 42.5722 40.6579 43.0272 40.7321C43.3177 40.7867 43.5991 40.8583 43.8716 40.9455C44.1441 41.0326 44.4166 41.1276 44.6891 41.2278C44.7893 41.2643 44.8678 41.3267 44.9282 41.4139C44.9873 41.5011 45.0078 41.5961 44.9899 41.6963C44.9899 41.7145 44.995 41.7262 45.004 41.7314C45.013 41.7366 45.0181 41.747 45.0181 41.7665C45.0271 41.803 45.031 41.8589 45.031 41.9318C45.049 42.3638 45.076 42.801 45.1132 43.2421C45.1222 43.3163 45.1364 43.4425 45.1544 43.6221C45.1724 43.8016 45.1929 44.0033 45.2161 44.2284C45.2392 44.4535 45.2636 44.6956 45.2906 44.9532C45.3176 45.2109 45.3407 45.4542 45.3587 45.6845C45.3767 45.9148 45.3947 46.1191 45.4127 46.2987C45.4307 46.4782 45.4397 46.6045 45.4397 46.6773C45.4577 46.8985 45.4539 47.121 45.4256 47.3462C45.3986 47.5713 45.3395 47.7899 45.2482 48.002C45.1479 48.2414 44.9899 48.4249 44.7714 48.5537C44.6261 48.6461 44.4719 48.7072 44.3086 48.7398C44.1454 48.7723 43.977 48.7931 43.8048 48.8022M39.1404 40.2922C39.0491 40.3287 38.9592 40.3365 38.8679 40.3131C38.7766 40.2896 38.7137 40.2285 38.6777 40.127C38.6507 40.0437 38.652 39.9669 38.6841 39.8928C38.7162 39.8199 38.7676 39.7509 38.8409 39.6859C38.9142 39.6221 38.9926 39.5636 39.08 39.5128C39.1661 39.4621 39.2509 39.4139 39.3319 39.3684C39.5594 39.2396 39.7972 39.1342 40.0465 39.0509C40.2959 38.9676 40.5478 38.8986 40.8023 38.844C41.0388 38.7984 41.274 38.775 41.5105 38.775C41.747 38.775 41.9822 38.7984 42.2187 38.844C42.2547 38.8531 42.3113 38.8739 42.3884 38.9064C42.4655 38.939 42.5182 38.9637 42.5452 38.9819C42.6274 39.0652 42.6609 39.1641 42.648 39.2786C42.6339 39.3931 42.5773 39.479 42.4771 39.5336C42.4038 39.5792 42.3254 39.5961 42.2393 39.5818C42.1532 39.5675 42.0735 39.561 42.0002 39.561C41.9462 39.561 41.855 39.5675 41.7277 39.5818C41.6005 39.5961 41.4642 39.6143 41.319 39.6364C41.1738 39.6599 41.0401 39.682 40.9167 39.7054C40.7946 39.7288 40.7059 39.7444 40.6506 39.7535C40.4141 39.8082 40.1789 39.8785 39.9424 39.9604C39.8062 40.006 39.6725 40.0619 39.5401 40.1257C39.4077 40.1908 39.2741 40.2454 39.1378 40.2909M40.7894 45.1471C40.8614 45.3319 40.9848 45.4646 41.157 45.5466C41.3293 45.6299 41.5066 45.6338 41.6879 45.5609C41.8061 45.5062 41.9077 45.4282 41.9951 45.3267C42.0812 45.2252 42.1609 45.1159 42.2329 44.9962C42.4514 44.6188 42.5876 44.2193 42.6416 43.7964C42.6596 43.6585 42.6647 43.5154 42.6557 43.3683C42.6467 43.2213 42.6197 43.0834 42.5735 42.9545C42.5465 42.8713 42.5002 42.7958 42.4372 42.7268C42.373 42.6579 42.301 42.6097 42.2187 42.5824C42.1634 42.5642 42.1069 42.559 42.0478 42.5681C41.9886 42.5772 41.9269 42.5824 41.864 42.5824H41.7547C41.6545 42.6188 41.5619 42.6696 41.4758 42.7346C41.3897 42.7984 41.31 42.8674 41.238 42.9415C41.0658 43.1159 40.9321 43.3228 40.8357 43.5622C40.7406 43.8016 40.684 44.045 40.6648 44.2935C40.6558 44.4405 40.6583 44.5876 40.6712 44.7346C40.6853 44.8817 40.7239 45.0196 40.7869 45.1484" fill="#A08268"/>
<path d="M49.3458 48.4432C49.0553 48.6266 48.7173 48.7242 48.3304 48.7333C47.9448 48.7424 47.5965 48.6696 47.288 48.5121C47.1338 48.438 46.9975 48.3235 46.8793 48.1673C46.806 48.0567 46.7546 47.9396 46.7225 47.816C46.6903 47.6924 46.6659 47.5661 46.6479 47.4373C46.6209 47.1432 46.6094 46.844 46.6145 46.5408C46.6184 46.2376 46.6261 45.9383 46.6351 45.6442V45.6169C46.5901 45.0925 46.5528 44.5733 46.5258 44.0581C46.4988 43.5428 46.4937 43.0236 46.5117 42.4992C46.5297 42.0854 46.5464 41.6768 46.5592 41.2721C46.5734 40.8675 46.5939 40.4589 46.6209 40.0451C46.6389 39.7692 46.6659 39.4895 46.7032 39.2032C46.7392 38.9182 46.8343 38.6567 46.9898 38.4173C47.0721 38.2793 47.1877 38.1674 47.3368 38.079C47.4872 37.9918 47.6389 37.9254 47.7931 37.8786C47.9924 37.8239 48.1954 37.8044 48.3998 37.8239C48.6042 37.8421 48.806 37.8747 49.0065 37.9202C49.1607 37.9566 49.3059 38.0074 49.4422 38.0724C49.5784 38.1375 49.7057 38.2195 49.8239 38.321C49.8972 38.3951 49.9602 38.4849 50.0142 38.5903C50.0681 38.6957 50.1093 38.8037 50.1363 38.9143C50.1812 39.1069 50.1992 39.3047 50.1902 39.5077C50.1812 39.7094 50.1671 39.9124 50.1491 40.1141C50.1491 40.1596 50.1401 40.2494 50.1221 40.3834C50.1041 40.5161 50.0874 40.6593 50.0746 40.8115C50.0604 40.9638 50.045 41.1082 50.027 41.2461C50.009 41.384 50 41.4764 50 41.522C49.955 42.0646 49.9075 42.6007 49.8574 43.129C49.8072 43.6586 49.7957 44.1934 49.8226 44.736C49.8406 45.0027 49.8638 45.2721 49.8908 45.5427C49.9178 45.8147 49.9409 46.0828 49.9589 46.3495C49.9769 46.5889 49.991 46.8257 50 47.06C50.009 47.2942 49.9769 47.5219 49.9049 47.7431C49.7957 48.0463 49.6093 48.2805 49.3458 48.4458" fill="#A08268"/>
<path d="M55.6811 48.8439C55.2081 48.8621 54.7339 48.8556 54.257 48.8231C53.7801 48.7905 53.3239 48.6734 52.8881 48.4717C52.6336 48.3429 52.4023 48.1751 52.1928 47.9682C51.9846 47.7613 51.811 47.5388 51.6748 47.2993C51.4473 46.9038 51.2918 46.4783 51.2044 46.0228C51.1183 45.5674 51.0836 45.1146 51.1028 44.6644C51.1208 44.3612 51.144 44.058 51.171 43.7535C51.198 43.4503 51.2609 43.151 51.3612 42.857C51.4434 42.6175 51.5501 42.3859 51.6812 42.1608C51.8123 41.9357 51.9691 41.7314 52.1517 41.5466C52.3702 41.3163 52.6169 41.1212 52.8946 40.9611C53.1722 40.7997 53.455 40.6735 53.7454 40.5824C54.2904 40.4081 54.856 40.3456 55.4421 40.3964C56.0282 40.4471 56.5796 40.6007 57.0976 40.8583C57.352 40.9871 57.5808 41.1615 57.7852 41.3827C57.9896 41.6039 58.1412 41.8472 58.2415 42.114C58.3417 42.3716 58.3919 42.6436 58.3919 42.9285C58.3919 43.2135 58.3597 43.4894 58.2967 43.7561C58.2518 43.9396 58.1901 44.1218 58.1129 44.3013C58.0358 44.4809 57.933 44.6396 57.8058 44.7776C57.6425 44.961 57.442 45.1107 57.2068 45.2252C56.9703 45.3397 56.7338 45.4204 56.4986 45.4672C56.0899 45.5596 55.6747 45.5817 55.2518 45.5362C54.829 45.4906 54.4138 45.4126 54.0051 45.302C53.9601 45.2837 53.928 45.2929 53.91 45.3293C53.883 45.3657 53.8688 45.4165 53.8688 45.4815C53.8688 45.5466 53.8714 45.613 53.8753 45.6819C53.8804 45.7509 53.8894 45.8199 53.9023 45.8888C53.9164 45.9578 53.9318 46.0111 53.9498 46.0476C53.9768 46.14 54.0128 46.2128 54.0591 46.2688C54.0951 46.3052 54.1516 46.3403 54.23 46.3729C54.3071 46.4054 54.3894 46.4301 54.4755 46.4483C54.5616 46.4666 54.6477 46.4835 54.7339 46.4965C54.82 46.5095 54.8907 46.5173 54.9446 46.5173C55.5616 46.5446 56.1888 46.4939 56.8251 46.3651C56.897 46.3468 56.9729 46.3299 57.05 46.3169C57.1271 46.3026 57.2017 46.2779 57.2749 46.2414C57.3289 46.2141 57.388 46.1998 57.4523 46.1998C57.6155 46.1907 57.7723 46.2532 57.9227 46.3859C58.0731 46.5199 58.1708 46.6643 58.2158 46.8205C58.2518 46.9766 58.2543 47.1432 58.2222 47.3176C58.1901 47.4919 58.1477 47.6585 58.0924 47.8146C58.0294 48.0072 57.9124 48.1751 57.7454 48.3182C57.577 48.4613 57.3983 48.5641 57.2068 48.6292C56.9613 48.7034 56.712 48.7528 56.4575 48.7814C56.203 48.8088 55.9446 48.8322 55.6811 48.8504M53.2557 39.492C53.329 39.6208 53.347 39.7406 53.3097 39.8512C53.2737 39.9618 53.2095 40.0489 53.1195 40.1127C53.0282 40.1765 52.9293 40.2051 52.82 40.196C52.7108 40.1869 52.6195 40.1179 52.5475 39.9891C52.4743 39.8694 52.4563 39.7497 52.4935 39.63C52.5295 39.5102 52.5938 39.4205 52.6838 39.3606C52.775 39.3007 52.874 39.276 52.9833 39.2851C53.0925 39.2942 53.1825 39.3632 53.2557 39.492ZM54.5501 39.7132C54.4048 39.8147 54.248 39.8368 54.0796 39.7822C53.9113 39.7275 53.7917 39.6208 53.7185 39.4647C53.6272 39.2903 53.6182 39.1134 53.6915 38.9338C53.7634 38.7542 53.8958 38.6462 54.0861 38.6098C54.1041 38.6098 54.1246 38.6007 54.1477 38.5825C54.1709 38.5643 54.1902 38.5551 54.2094 38.5551C54.3277 38.4914 54.4498 38.4914 54.577 38.5551C54.6863 38.6111 54.766 38.6892 54.8161 38.7894C54.8662 38.8909 54.8881 38.9963 54.8842 39.1069C54.8791 39.2175 54.8482 39.3281 54.7891 39.4374C54.73 39.548 54.6503 39.6391 54.5513 39.7132M54.2364 43.9331C54.2994 43.9968 54.3945 44.0463 54.5218 44.0775C54.649 44.11 54.7801 44.1283 54.9164 44.1322C55.0526 44.1374 55.1889 44.1296 55.3251 44.1114C55.4613 44.0931 55.5744 44.0697 55.6657 44.0424C55.8379 43.9877 55.9742 43.8953 56.0744 43.7665C56.1747 43.6377 56.2377 43.4959 56.2647 43.3384C56.2917 43.1823 56.2788 43.0235 56.2235 42.8622C56.1696 42.7008 56.0732 42.5616 55.9382 42.4419C55.811 42.3313 55.6606 42.2402 55.4883 42.166C55.3161 42.0919 55.1426 42.0645 54.9704 42.0828C54.7698 42.101 54.5976 42.1751 54.4524 42.304C54.3071 42.4328 54.2004 42.5954 54.1323 42.7932C54.0642 42.991 54.0346 43.1862 54.0436 43.3788C54.0436 43.4803 54.0565 43.5818 54.0848 43.682C54.1118 43.7834 54.1619 43.8667 54.2352 43.9305M56.3084 39.5883C56.2441 39.643 56.176 39.6729 56.104 39.6781C56.0307 39.6833 55.9626 39.6664 55.8996 39.63C55.8354 39.5935 55.7852 39.5376 55.7493 39.4647C55.7133 39.3905 55.694 39.3125 55.694 39.2305C55.703 39.1199 55.7467 39.0236 55.8238 38.9403C55.9009 38.857 55.9935 38.8206 56.1027 38.8297C56.194 38.8297 56.2685 38.8596 56.3276 38.9195C56.3868 38.9793 56.4279 39.0483 56.4498 39.1264C56.4729 39.2045 56.4729 39.2877 56.4498 39.3749C56.4266 39.4621 56.3791 39.5337 56.3071 39.5883" fill="#A08268"/>
<path d="M63.0241 48.8297C62.6424 48.8479 62.2683 48.8505 61.8995 48.8362C61.5319 48.8232 61.1617 48.7789 60.789 48.7047C60.5615 48.6592 60.334 48.5902 60.1077 48.4978C59.8802 48.4055 59.69 48.2727 59.5358 48.0971C59.4355 47.9774 59.3533 47.8303 59.2903 47.656C59.2273 47.4816 59.1862 47.302 59.1682 47.1186C59.1502 46.9351 59.154 46.7516 59.1823 46.5668C59.2093 46.3834 59.2646 46.2272 59.3455 46.0984C59.4548 45.9422 59.582 45.8316 59.7273 45.7679C59.9355 45.6846 60.154 45.6417 60.3815 45.6365C60.609 45.6313 60.8262 45.6521 61.0357 45.6989C61.172 45.7262 61.3056 45.7627 61.438 45.8095C61.5691 45.8564 61.7041 45.8993 61.8403 45.9409C61.9766 45.9826 62.1128 46.0164 62.2491 46.0437C62.3853 46.0711 62.5216 46.0802 62.6578 46.0711C62.7581 46.0711 62.857 46.0502 62.9573 46.0086C63.0575 45.967 63.1077 45.8967 63.1077 45.7952C63.1077 45.7315 63.0781 45.6742 63.019 45.6221C62.9599 45.5714 62.8892 45.5298 62.8082 45.4985C62.7259 45.466 62.6398 45.4387 62.5498 45.4153C62.4586 45.3931 62.3815 45.3723 62.3185 45.3528C62.028 45.2695 61.7349 45.1901 61.4393 45.1108C61.1437 45.0327 60.8596 44.9299 60.5872 44.8011C60.3969 44.7087 60.2144 44.5994 60.0422 44.4706C59.87 44.3418 59.7337 44.1856 59.6335 44.0021C59.4882 43.7354 59.3931 43.4504 59.3468 43.1472C59.3018 42.844 59.3147 42.5448 59.388 42.2507C59.4329 42.0295 59.5191 41.8213 59.6463 41.6235C59.7736 41.4257 59.9188 41.2487 60.082 41.0926C60.4998 40.7244 60.9856 40.4992 61.5396 40.4173C61.8481 40.3626 62.1642 40.3548 62.4869 40.3965C62.8095 40.4381 63.1154 40.5188 63.4059 40.6372C63.5241 40.5734 63.6732 40.5084 63.8557 40.4446C64.0369 40.3808 64.2233 40.3301 64.4148 40.2924C64.6051 40.2559 64.7889 40.239 64.9662 40.2442C65.1436 40.2494 65.2863 40.2924 65.3955 40.3756C65.4405 40.4121 65.4791 40.4589 65.5112 40.5136C65.5433 40.5682 65.5678 40.6294 65.5858 40.6931C65.6127 40.7946 65.6333 40.9443 65.6474 41.1408C65.6616 41.3385 65.668 41.5454 65.668 41.7614C65.668 41.9774 65.659 42.1869 65.641 42.3886C65.623 42.5903 65.5999 42.7426 65.5729 42.844C65.5369 42.9455 65.4842 43.0418 65.4161 43.1342C65.348 43.2266 65.2644 43.2956 65.1642 43.3411C65.0369 43.4062 64.8981 43.4361 64.749 43.4309C64.5986 43.427 64.4521 43.4062 64.3069 43.3684C63.9894 43.2943 63.6848 43.1941 63.3943 43.0653C63.1038 42.9364 62.7992 42.8349 62.4817 42.7621C62.3995 42.7439 62.3159 42.7373 62.2298 42.7412C62.1437 42.7465 62.0666 42.7647 61.9984 42.7959C61.9303 42.8284 61.8738 42.8714 61.8288 42.9273C61.7825 42.9833 61.7645 43.0509 61.7748 43.1342C61.7838 43.2266 61.8288 43.3021 61.911 43.3619C61.9933 43.4218 62.0794 43.4699 62.1694 43.5064C62.2144 43.5246 62.3082 43.5506 62.4483 43.5818C62.5884 43.6144 62.7413 43.6482 62.9046 43.6846C63.0678 43.7211 63.2221 43.7588 63.3673 43.7952C63.5125 43.8317 63.6077 43.8551 63.6539 43.8642C63.9354 43.9462 64.2169 44.0529 64.4984 44.1817C64.7799 44.3105 65.0254 44.481 65.2336 44.6918C65.4418 44.9039 65.6076 45.1498 65.731 45.4296C65.8531 45.7106 65.9238 45.9956 65.9418 46.2845C65.9598 46.5746 65.9264 46.8609 65.839 47.1472C65.7528 47.4321 65.6089 47.6846 65.4097 47.9058C65.2734 48.0619 65.114 48.1973 64.9328 48.3131C64.7503 48.4276 64.5652 48.5226 64.3737 48.5954C64.1565 48.6683 63.9328 48.7217 63.7066 48.7542C63.4791 48.7867 63.2529 48.8114 63.0254 48.8297" fill="#A08268"/>
</svg>
