<svg width="98" height="58" viewBox="0 0 98 58" fill="none" xmlns="http://www.w3.org/2000/svg">
<path d="M73.868 33.985C72.9989 31.0592 71.3081 28.88 68.4109 27.7145C65.4703 26.5308 62.6931 26.9841 60.0422 28.5502C57.3623 22.4658 52.8427 19.2365 46.4585 18.7205C46.4047 18.765 46.3529 18.8095 46.3012 18.8581C45.9535 19.1778 45.5459 19.3801 45.1237 19.4732C44.7781 19.6614 44.4222 19.8354 44.0621 19.9973C44.0435 20.0701 44.0248 20.1409 44 20.2118C44.2918 20.1389 44.6022 20.1025 44.9292 20.0823C45.1278 20.0701 45.3244 20.062 45.5231 20.058C51.5348 19.9406 56.8118 23.6394 58.7964 29.3595C59.2268 30.5999 59.4255 30.6606 60.4933 29.8876C60.5202 29.8694 60.5451 29.8472 60.572 29.8289C64.4128 27.0792 69.7312 28.3337 71.84 32.514C72.1732 33.1716 72.3863 33.8919 72.5933 34.6021C72.8995 35.6523 73.0196 35.7292 74.1205 35.3872C74.255 35.3447 74.3916 35.3103 74.5406 35.2739L75 33.8191C74.613 33.8757 74.2488 33.9304 73.8639 33.987" fill="#E8E8E8"/>
<path d="M97.9162 46.7131C97.4027 43.8043 95.6407 41.9599 92.78 41.2205C91.786 40.9645 90.7161 40.9991 89.5557 40.8873C88.3112 38.1187 86.2555 35.9574 83.3393 34.633L83.0251 35.9716C83.1093 36.0001 83.175 36.0244 83.2366 36.0569C85.5367 37.227 87.1756 39.0104 88.2435 41.3261C88.763 42.4514 88.7589 42.4535 89.9767 42.3255C90.139 42.3092 90.3012 42.2849 90.4655 42.2788C92.1413 42.2056 93.6364 42.6749 94.8911 43.788C96.4868 45.2038 97.0639 47.5053 96.3225 49.3659C95.5771 51.2327 94.2216 52.0351 91.7922 52.0371C88.3235 52.0412 84.857 52.0412 81.3904 52.0412C81.1296 52.0412 80.8667 52.0351 80.6059 52.0574C80.226 52.0899 79.9549 52.3337 80.0062 52.683C80.0391 52.9065 80.302 53.1502 80.5217 53.2802C80.6963 53.3838 80.9674 53.3473 81.1933 53.3473C84.8898 53.3473 88.5864 53.3595 92.283 53.3371C92.897 53.3331 93.5316 53.2599 94.119 53.0873C96.6819 52.3357 98.4029 49.4533 97.9182 46.711" fill="#E8E8E8"/>
<path d="M89.498 20.0016C89.3504 19.9532 89.1867 19.9396 89.0311 19.928C87.8895 19.8466 86.748 19.7769 85.6085 19.6916C84.9479 19.6451 84.2874 19.5811 83.6428 19.5249C83.092 18.1704 82.5711 16.8779 82.0402 15.5912C81.8746 15.1901 81.7169 14.7812 81.4934 14.4111C81.1921 13.9092 80.6792 13.9208 80.3758 14.4227C80.2002 14.7134 80.0845 15.0389 79.9528 15.3509C79.362 16.7422 78.7753 18.1336 78.1766 19.5482C76.5122 19.6703 74.8977 19.7865 73.2832 19.9067C73.0298 19.9261 72.7703 19.9261 72.5269 19.9861C71.8284 20.1586 71.6887 20.6353 72.1876 21.1314C72.4091 21.3504 72.6626 21.5403 72.9081 21.736C74.0875 22.67 75.2689 23.6002 76.4703 24.5477C76.0253 26.1406 75.5822 27.7141 75.1512 29.2896C74.786 30.6267 74.8977 30.7642 76.3226 30.6673C76.2827 30.8107 76.2288 31.0006 76.167 31.2216C75.7958 32.5315 75.1133 34.9131 75.1133 34.9131C75.1173 34.9131 75.1232 34.9092 75.1272 34.9092C74.9696 35.508 74.8558 35.9808 74.7201 36.4478C72.8961 42.7477 70.6968 48.9235 68.2621 55.0217C68.1584 55.2814 68.0187 55.5411 68.0007 55.8085C67.9887 55.981 68.1324 56.2794 68.2681 56.3201C68.4617 56.3763 68.773 56.3084 68.9247 56.1767C69.0963 56.0255 69.1562 55.7484 69.248 55.5178C69.6451 54.516 70.0383 53.5122 70.4394 52.4851C72.487 52.2894 74.4687 52.0995 76.5282 51.9038C76.4643 52.1887 76.4384 52.3669 76.3865 52.5336C76.0273 53.6846 75.6621 54.8338 75.3009 55.9848C75.237 56.1902 75.1332 56.4111 75.1632 56.6088C75.1891 56.789 75.3448 57.039 75.4984 57.0874C75.6521 57.1339 75.9255 57.0138 76.0552 56.882C76.1969 56.7367 76.2468 56.5003 76.3186 56.2968C76.5901 55.5062 76.8595 54.7156 77.1189 53.923C78.9869 48.2181 80.5175 42.424 82.0482 36.63C82.0722 36.535 82.7926 33.4248 83.2935 31.2216C83.4771 30.4154 83.6308 29.7314 83.7126 29.3593C84.3532 29.7585 84.904 30.1054 85.4608 30.4445C85.8061 30.6538 86.1573 30.9483 86.5804 30.6131C86.9496 30.3205 86.8079 29.9523 86.7021 29.5899C86.3668 28.4311 86.0395 27.2723 85.7143 26.1135C85.5646 25.5825 85.4309 25.0496 85.2892 24.507C86.6043 23.4994 87.8736 22.5266 89.1428 21.5519C89.3663 21.3794 89.6078 21.2186 89.7954 21.0132C90.1586 20.6121 90.0249 20.1799 89.5 20.0036M76.9712 50.7837C74.9416 50.9717 73.0238 51.15 71.0162 51.336C71.0481 51.1074 71.0441 50.9349 71.098 50.7818C71.4233 49.8497 71.7805 48.9273 72.0878 47.9914C72.2096 47.6232 72.3812 47.4139 72.8003 47.3868C74.5026 47.2802 76.2029 47.1581 78.0688 47.0302C77.6877 48.3324 77.3404 49.5242 76.9712 50.7837ZM78.3702 45.9179C76.4883 46.0555 74.6702 46.1892 72.7244 46.3307C73.1415 45.106 73.5167 44.0072 73.9119 42.8504C75.714 42.6701 77.4961 42.4919 79.382 42.3039C79.0268 43.5751 78.7055 44.7242 78.3722 45.9179M79.6714 41.1683C77.9112 41.3641 76.163 41.5578 74.2631 41.7671C74.6443 40.5308 74.9875 39.4204 75.3348 38.2946C77.085 38.1628 78.7753 38.0349 80.5714 37.8992C80.2581 39.0367 79.9767 40.0657 79.6714 41.1703M81.0244 36.0138V36.0176C80.9646 36.2541 80.9087 36.4866 80.8448 36.7404C79.1665 36.8993 77.5041 37.0582 75.676 37.2326C76.0053 36.039 76.3027 34.9615 76.61 33.8512C78.2784 33.7368 79.8869 33.6264 81.5792 33.5082C81.5593 33.7097 81.0783 35.7967 81.0244 36.0138ZM81.9205 32.3707C80.2661 32.5063 78.6715 32.6362 76.9433 32.7757C77.073 32.2331 77.1928 31.7196 77.3125 31.2216C77.4243 30.7545 77.534 30.303 77.6518 29.8496C77.6857 29.7178 77.8134 29.5822 77.9351 29.5008C78.899 28.8632 79.8709 28.2393 80.8788 27.5882C81.5393 27.9951 82.0961 28.34 82.7307 28.7315C82.5471 29.557 82.3615 30.3786 82.1739 31.2216C82.0901 31.5994 82.0043 31.9812 81.9185 32.3707M87.3567 21.6313C86.4606 22.3193 85.5506 22.9917 84.6566 23.6835C84.0139 24.1796 84.0139 24.228 84.2554 25.0186C84.6585 26.3402 85.0537 27.6618 85.3151 29.0997C84.9559 28.8807 84.5947 28.6617 84.2355 28.4389C83.3274 27.875 82.4134 27.3188 81.5134 26.7394C81.0544 26.4449 80.6512 26.4681 80.2022 26.7723C79.2383 27.4215 78.2544 28.0436 77.2746 28.6733C77.0151 28.84 76.7417 28.9892 76.3646 29.2121C76.4144 28.8981 76.4264 28.6966 76.4803 28.5086C76.8016 27.4138 77.091 26.3053 77.4781 25.2337C77.7396 24.5129 77.6318 24.0207 76.9812 23.5653C76.135 22.9684 75.3428 22.2979 74.5305 21.6565C74.295 21.4705 74.0735 21.267 73.7103 20.9531C75.0175 20.8543 76.141 20.7671 77.2666 20.6876C77.552 20.6682 77.8374 20.6566 78.1227 20.6644C78.7115 20.6799 79.0427 20.4202 79.2503 19.8776C79.7452 18.5812 80.294 17.3042 80.8867 15.8586C81.0923 16.2733 81.2499 16.5523 81.3717 16.843C81.7828 17.81 82.2178 18.7711 82.5691 19.7594C82.8046 20.4221 83.2197 20.6586 83.9122 20.6779C85.1495 20.7109 86.3828 20.8058 87.6181 20.8795C87.7339 20.8853 87.8496 20.9105 88.145 20.9492C87.8017 21.2477 87.5902 21.455 87.3547 21.6333" fill="#E8E8E8"/>
<path d="M11.4437 32.3414C11.7097 31.4218 11.9078 30.5375 12.2233 29.6905C14.0425 24.82 19.2401 21.1299 25.0585 21.5632C28.9917 21.8573 32.0938 23.6044 34.4946 26.5357C34.5956 26.6572 34.6843 26.7906 34.7607 26.9278C34.9236 27.216 34.8576 27.4807 34.6039 27.6847C34.3028 27.9278 33.9831 27.8768 33.7211 27.6298C33.5128 27.4337 33.3561 27.1886 33.1704 26.9709C30.8563 24.2671 27.8491 22.822 24.2025 22.7534C21.1644 22.6965 18.5883 23.9043 16.4123 25.869C14.4674 27.6258 13.2958 29.7827 12.9328 32.3238C12.7472 33.6257 12.739 33.6257 11.3777 33.6826C6.98448 33.8669 2.85115 37.159 1.76007 41.3452C1.09594 43.8961 1.29188 46.3627 2.56859 48.7195C2.76247 49.0783 3.00378 49.4175 3.24304 49.7528C3.92161 50.7038 4.726 51.1861 6.08109 51.1822C26.2857 51.1253 46.4903 51.1371 66.6949 51.1351C66.9568 51.1351 67.258 51.0803 67.4704 51.1822C67.6932 51.2901 67.918 51.5371 67.9819 51.7626C68.0686 52.0665 67.8334 52.2979 67.4993 52.3528C67.2415 52.3939 66.9754 52.3979 66.7135 52.3979C54.7549 52.4018 42.7963 52.4037 30.8377 52.4037C22.3607 52.4037 13.8857 52.3861 5.4087 52.4175C4.40218 52.4214 3.65348 52.1332 2.96459 51.4685C1.45069 50.0136 0.617427 48.2411 0.219358 46.2745C-0.754159 41.453 1.57444 36.51 5.97796 33.959C7.49392 33.0806 8.92739 32.6512 11.4416 32.3395" fill="#E8E8E8"/>
<path d="M4.00206 43.465C4.21421 40.453 5.57981 38.1108 8.69619 36.708C8.89804 36.6175 9.12461 36.4998 9.33265 36.5052C9.55716 36.5125 9.77755 36.6519 10 36.7333C9.90113 36.9234 9.83316 37.1352 9.69104 37.2944C9.60247 37.394 9.39856 37.4085 9.25026 37.47C6.5932 38.5651 4.87127 41.1445 5.07518 43.7292C5.09372 43.9591 5.18641 44.2017 5.12667 44.4134C5.07312 44.6035 4.85891 44.7592 4.71679 44.9293C4.52935 44.8008 4.23687 44.7012 4.17714 44.5365C4.05149 44.1872 4.04943 43.8034 4 43.465" fill="#E8E8E8"/>
<path d="M22 25.6981C21.7427 25.9477 21.5928 26.1598 21.3902 26.2721C21.1107 26.428 20.7785 26.4821 20.4888 26.6194C18.2888 27.6695 16.8363 29.3893 16.1374 31.7745C16.0726 31.9949 16.0645 32.2528 15.945 32.4316C15.8356 32.5938 15.55 32.8018 15.4446 32.7539C15.2542 32.6666 15.0678 32.4233 15.0131 32.2091C14.9625 32.0095 15.0699 31.7579 15.1367 31.5374C16.024 28.6511 17.8269 26.6152 20.5536 25.4569C20.8149 25.3467 21.1147 25.2614 21.3902 25.2739C21.5645 25.2822 21.7285 25.4964 22 25.694" fill="#E8E8E8"/>
<path d="M56.4773 29.0169C56.2176 28.8055 55.9959 28.6859 55.8768 28.5164C55.5741 28.0797 55.3453 27.6071 55.0331 27.1744C54.2371 26.0698 53.1528 25.2024 51.8182 24.5523C51.5894 24.4407 51.3177 24.3629 51.1533 24.2054C51.0317 24.0877 50.9507 23.8126 51.0341 23.7049C51.1533 23.5514 51.425 23.4417 51.6537 23.4038C51.8063 23.3799 52.0041 23.4995 52.1685 23.5753C54.3348 24.5743 55.8649 26.0578 56.873 27.9301C56.9611 28.0956 57.0374 28.313 56.9802 28.4725C56.9159 28.65 56.6966 28.7895 56.475 29.0149" fill="#E8E8E8"/>
<path d="M65.6334 29.9543C66.7447 29.9275 67.6877 30.2747 68.5377 30.8117C68.7237 30.9298 68.934 31.0873 68.9871 31.2555C69.0358 31.4113 68.9406 31.6493 68.8012 31.7692C68.706 31.8533 68.4204 31.8247 68.2323 31.7961C68.1105 31.7782 68.002 31.6726 67.9002 31.5974C67.0679 30.9835 66.0917 30.7562 64.9848 30.8868C64.5554 30.9387 64.0441 31.0068 64.002 30.5307C63.9644 30.0993 64.4669 30.0277 64.9007 29.9901C65.1442 29.9687 65.3899 29.9651 65.6357 29.9543" fill="#E8E8E8"/>
<path d="M74.6302 10.2963C74.7289 10.371 74.945 10.4701 75.0583 10.6289C75.6731 11.4791 76.2606 12.3443 76.8587 13.2038C77.0622 13.4972 77.0748 13.7737 76.7034 13.9662C76.3677 14.1419 76.1159 13.9812 75.9438 13.7382C75.3206 12.8581 74.6932 11.9799 74.1078 11.0773C73.8455 10.6737 74.0784 10.2944 74.6282 10.2963" fill="#E8E8E8"/>
<path d="M81.9987 9.83443C81.9987 10.4162 82.0027 11 81.9967 11.5818C81.9928 11.8814 81.8978 12.152 81.5399 12.1674C81.1285 12.1868 81.0099 11.9007 81.0079 11.5605C81.002 10.395 81.004 9.23136 81 8.06583C81 7.74884 81.1147 7.51109 81.4628 7.48983C81.8781 7.4647 81.9908 7.73724 81.9908 8.08709C81.9908 8.66889 81.9908 9.25263 81.9908 9.83443H81.9987Z" fill="#E8E8E8"/>
<path d="M94.5525 22.4626C93.9065 22.4626 93.2627 22.4682 92.6167 22.4608C92.2734 22.4571 91.9856 22.3234 92.0006 22.0023C92.0155 21.7072 92.2585 21.5327 92.6231 21.5327C93.8788 21.5327 95.1367 21.5271 96.3924 21.529C96.7463 21.529 96.9979 21.6794 97 21.9968C97.0021 22.3271 96.7292 22.4515 96.3839 22.4552C95.772 22.4608 95.1622 22.4552 94.5504 22.4552V22.4608L94.5525 22.4626Z" fill="#E8E8E8"/>
<path d="M87.4428 14.0404C87.2734 13.8079 87.0623 13.6215 87.0051 13.4044C86.9677 13.268 87.1458 13.0739 87.2536 12.9221C87.7838 12.1747 88.3249 11.4311 88.8639 10.6875C88.9387 10.5857 89.0069 10.4358 89.1146 10.405C89.3478 10.3397 89.6866 10.2417 89.8274 10.3339C89.9725 10.43 90.0539 10.7951 89.9594 10.943C89.4336 11.7635 88.8441 12.5532 88.2765 13.3506C88.1841 13.4793 88.1072 13.6234 87.9884 13.7272C87.874 13.829 87.7112 13.8905 87.445 14.0385" fill="#E8E8E8"/>
<path d="M67.6025 21.5305C68.1815 21.5305 68.7605 21.5305 69.3373 21.5305C69.6753 21.5305 69.9745 21.6251 69.9982 21.9499C70.0261 22.321 69.7334 22.4602 69.3417 22.4602C68.1169 22.4639 66.89 22.4658 65.6653 22.4639C65.3316 22.4639 65.0303 22.3767 65.0023 22.0482C64.97 21.666 65.2821 21.5472 65.6631 21.5416C66.3088 21.5342 66.9567 21.5398 67.6025 21.5398V21.5286V21.5305Z" fill="#E8E8E8"/>
<path d="M72 17.0977C72.0023 17.6348 71.5672 17.9212 71.1227 17.72C70.6829 17.5212 70.2761 17.2444 69.8574 16.9983C69.3095 16.6764 68.7356 16.3877 68.2347 16.0044C68.063 15.8742 67.9407 15.4388 68.0301 15.2661C68.1218 15.0886 68.5804 14.9135 68.7427 14.9986C69.7681 15.5335 70.7606 16.1322 71.7507 16.7332C71.8871 16.8161 71.9506 17.0243 72 17.1" fill="#E8E8E8"/>
<path d="M95 15.651C94.9152 15.7529 94.8092 15.9639 94.6373 16.0705C93.7541 16.6151 92.8568 17.1366 91.9595 17.6627C91.618 17.8621 91.2953 17.8273 91.0975 17.4796C90.9067 17.1459 90.9986 16.84 91.3495 16.6406C92.2821 16.1076 93.2077 15.5536 94.1569 15.053C94.5855 14.8259 95.0353 15.1272 94.9976 15.6533" fill="#E8E8E8"/>
<path d="M25 25.8396C24.874 25.943 24.7279 26.155 24.5449 26.1953C24.2644 26.2584 24.031 26.0972 24.0025 25.7607C23.9773 25.4629 24.1469 25.2981 24.4173 25.2754C24.7145 25.2508 24.916 25.3928 25 25.8396Z" fill="#E8E8E8"/>
<path d="M50 22.9688C49.7035 23.1847 49.5312 23.4026 49.3589 23.4007C49.2346 23.4007 49.0309 23.1236 49.006 22.944C48.9613 22.6325 49.1717 22.4166 49.4351 22.4739C49.5958 22.5083 49.73 22.7223 49.9983 22.9688" fill="#E8E8E8"/>
<path d="M53.9142 12.3765C51.9715 12.2749 50.0739 13.3606 48.7487 14.6458C48.7035 14.594 48.6502 14.548 48.5887 14.5077C48.5866 14.5077 48.5825 14.5058 48.5804 14.5039C49.5672 13.115 51.0853 11.8337 52.8557 11.5804C52.9767 11.5632 52.9542 11.3867 52.8331 11.404C50.995 11.6668 49.4339 12.9846 48.4143 14.4214C48.0676 14.2928 47.6593 14.3983 47.4357 14.6957C47.2737 14.9086 47.2449 15.1714 47.3332 15.3997C47.167 15.5148 46.9865 15.649 46.7916 15.8025C47.5752 13.89 48.7097 10.1494 47.2019 7.14354C46.2931 5.33272 45.5935 4.23549 45.0786 3.37228C44.9494 3.15551 44.8324 2.9541 44.7257 2.76035C44.7257 2.76035 44.7257 2.75844 44.7257 2.75652C44.6929 2.69705 44.6622 2.63759 44.6314 2.58004C44.6252 2.56661 44.617 2.55318 44.6109 2.53976C44.5862 2.49372 44.5637 2.44576 44.5411 2.39972C44.5329 2.38246 44.5247 2.3652 44.5165 2.34793C44.496 2.30573 44.4755 2.26161 44.457 2.21941C44.4488 2.20023 44.4406 2.18296 44.4324 2.16378C44.4139 2.12158 44.3955 2.07746 44.377 2.03526C44.3688 2.01799 44.3626 2.00073 44.3544 1.98155C44.336 1.93551 44.3175 1.88755 44.299 1.8396C44.2949 1.82617 44.2888 1.81274 44.2847 1.79931C44.2396 1.67655 44.2006 1.55186 44.1636 1.42142C44.1595 1.40416 44.1554 1.38881 44.1513 1.37155C44.139 1.32359 44.1267 1.27563 44.1144 1.22576C44.1083 1.20274 44.1042 1.17972 44.098 1.15478C44.0877 1.11066 44.0795 1.06654 44.0713 1.02242C44.0652 0.995569 44.0611 0.968714 44.057 0.941858C44.0488 0.897739 44.0406 0.853619 44.0344 0.807581C44.0303 0.778808 44.0262 0.751952 44.0221 0.72126C44.0159 0.675222 44.0098 0.627266 44.0036 0.57931C43.9995 0.550536 43.9975 0.521763 43.9934 0.492989C43.9872 0.441196 43.9831 0.385567 43.977 0.331856C43.9749 0.305001 43.9708 0.280064 43.9688 0.253208C43.9626 0.170724 43.9564 0.0882393 43.9523 0C43.9523 0 41.8311 2.11391 38.7232 4.29495C35.6132 6.476 34.3412 12.2269 38.7232 14.8031C38.7232 14.8031 34.2325 12.9884 30.8066 15.2654C27.5817 17.4081 27.2022 19.5603 26 19.2304C26 19.2304 26 19.2304 26.0021 19.2323C26.0021 19.2323 26.0021 19.2323 26.0041 19.2342C26.0062 19.2362 26.0103 19.2381 26.0123 19.2419C26.4288 19.5795 35.3403 26.6847 42.9882 20.6C42.5697 21.423 42.1758 22.3533 41.8352 23.4007C41.8352 23.4007 46.5598 20.6442 48.045 15.9042C48.3281 15.9253 48.6133 15.8121 48.7897 15.58C48.9702 15.3402 48.9846 15.0352 48.8553 14.7897C50.1375 13.5313 52.0064 12.4475 53.8999 12.5472C54.023 12.553 54.0373 12.3765 53.9163 12.3708" fill="#E8E8E8"/>
<path d="M84.9566 24.9016C85.3754 26.1986 85.786 27.4955 86.0576 28.9066C85.6844 28.6917 85.3091 28.4768 84.9359 28.2581C83.9924 27.7047 83.0427 27.1589 82.1075 26.5903C81.6306 26.3013 81.2118 26.3241 80.7452 26.6227C79.7437 27.2597 78.7215 27.8701 77.7033 28.4882C77.4338 28.6517 77.1497 28.7982 76.7578 29.0169C76.8097 28.7088 76.8221 28.511 76.8781 28.3265C77.2119 27.2521 77.5126 26.1663 77.9148 25.1127C78.1865 24.4053 78.0745 23.9223 77.3985 23.4754C76.5194 22.8897 75.6962 22.2317 74.8522 21.6023C74.6076 21.4197 74.3774 21.22 74 20.912C75.3582 20.815 76.5256 20.7294 77.6951 20.6514C77.9916 20.6305 78.2902 20.621 78.5846 20.6286C79.1963 20.6438 79.5405 20.389 79.7562 19.8565C80.2704 18.5843 80.8406 17.3311 81.4565 15.9125C81.67 16.3194 81.8338 16.5933 81.9624 16.8785C82.3895 17.8275 82.8416 18.7707 83.2065 19.7405C83.4512 20.3909 83.8825 20.6248 84.602 20.6419C85.8855 20.6742 87.1691 20.7674 88.4526 20.8397C88.5729 20.8454 88.6931 20.8701 89 20.9081C88.6434 21.201 88.4236 21.4045 88.1789 21.5813C87.2479 22.2564 86.3023 22.9163 85.3734 23.5952C84.7057 24.082 84.7057 24.1296 84.9566 24.9055" fill="#E8E8E8"/>
</svg>
